<?xml version="1.0" standalone="no"?>
<!DOCTYPE svg PUBLIC "-//W3C//DTD SVG 1.1//EN" "http://www.w3.org/Graphics/SVG/1.1/DTD/svg11.dtd" >
<svg xmlns="http://www.w3.org/2000/svg">
<metadata></metadata>
<defs>
<font id="cleanbold" horiz-adv-x="1233" >
<font-face units-per-em="2048" ascent="1638" descent="-410" />
<missing-glyph horiz-adv-x="602" />
<glyph horiz-adv-x="0" />
<glyph horiz-adv-x="0" />
<glyph unicode="&#xd;" horiz-adv-x="602" />
<glyph horiz-adv-x="0" />
<glyph unicode="&#x9;" horiz-adv-x="602" />
<glyph horiz-adv-x="0" />
<glyph unicode=" "  horiz-adv-x="602" />
<glyph unicode="&#x09;" horiz-adv-x="602" />
<glyph unicode="&#xa0;" horiz-adv-x="602" />
<glyph unicode="!" d="M469 156h293v-426h-293v426zM486 1524h268l-49 -1231h-180z" />
<glyph unicode="&#x22;" d="M250 674v797h285v-797h-285zM696 674v797h287v-797h-287z" />
<glyph unicode="#" d="M15 277l35 199l211 -1l78 330h-260l24 198h280l127 552l206 -23l-127 -529h247l125 552l203 -23l-121 -529h174l-30 -198h-185l-78 -330h256l-25 -198h-278l-131 -572l-207 29l127 543h-238l-135 -572l-204 29l125 543h-199zM472 475h239l78 330h-244z" />
<glyph unicode="$" d="M113 228l162 114q59 -71 121 -114q61 -45 129 -70v414l-90 37q-49 20 -102 49q-23 10 -52 34q-30 25 -53 54q-24 26 -33 45q-10 16 -31 55q-18 47 -18 100l-2 33q0 156 98 234q91 67 152 90q59 22 131 28v199l190 25v-234q106 -26 190 -78.5t154 -140.5l-143 -131 q-51 47 -103 82q-51 33 -98 51v-354q395 -125 395 -412v-12v-10q0 -41 -2 -56.5t-16 -48.5q-10 -45 -64 -112q-45 -62 -140 -112q-82 -40 -172 -53v-200l-191 -25v231q-72 17 -139 50q-70 33 -111 65.5t-45 36.5q-17 15 -35.5 36.5t-42.5 49.5q-25 29 -39 50zM371 973 q0 -61 43 -94q41 -33 111 -64v308q-22 0 -43 -9q-22 -8 -37 -14q-45 -18 -60 -57q-14 -39 -14 -70zM715 150q51 6 100 39q47 32 66 94l6 45q0 33 -18 72q-19 36 -58 69q-16 15 -33.5 23t-62.5 22v-364z" />
<glyph unicode="%" d="M117 -287l702 1600q-57 -14 -96 -14l-33 2l9 -66l4 -71q0 -105 -37 -179q-19 -39 -41 -67q-25 -29 -57 -49q-64 -45 -142 -45l-55 6q-109 20 -172 125q-53 100 -53 231q0 84 19 145q15 68 52 119t82 70l70 24l63 7l52 -5q16 -2 34 -6q19 -6 47 -18l56 -29l45 -6l43 -2 q115 0 268 66h150l-807 -1838h-203zM350 1188q0 -86 17 -125q14 -41 57 -41q41 0 55 41q13 39 17 62q2 22 2 65q0 72 -14 119q-17 45 -62 45q-39 0 -55.5 -43t-16.5 -123zM537 76q0 143 69 254q68 109 209 109q144 0 213 -113q31 -51 47 -115q17 -63 17 -135 q0 -136 -66 -248q-67 -115 -211 -115q-143 0 -215 115q-30 53 -47 114q-16 60 -16 134zM744 78l6 -93q4 -32 22 -55q9 -16 41 -20q37 0 54 37q6 20 12 51t6 80q0 72 -14 119q-17 45 -62 45q-37 0 -47 -31t-14 -59q-4 -31 -4 -74z" />
<glyph unicode="&#x26;" d="M67 160q0 111 62 207q10 14 43 45q43 43 55 53q45 41 109 84l-17 25l-37 49l-63 100l-31 49l-18 58l-17 57l-4 59q0 68 37 158q35 88 140 152q53 28 110 45q58 16 119 16q92 0 185 -39q96 -37 155 -133q62 -90 62 -203q0 -96 -49 -182q-23 -49 -56 -84l-71 -70l-68 -51 l-33 -24l-37 -27l242 -330l18 41l27 101l23 120l213 -36q-25 -154 -50 -226q-12 -37 -22 -61q-10 -27 -25 -51q-14 -27 -20 -39q-15 -25 -25 -42l180 -252h-258l-73 97q-99 -72 -185 -92q-30 -7 -75 -15t-88 -8h-43q-23 0 -48 4q-26 2 -86 27q-63 20 -127 78 q-61 51 -107 149q-47 99 -47 191zM291 162q0 -43 24 -96q19 -45 81 -91q59 -47 147 -47q111 0 207 74l-289 389q-47 -32 -76 -57q-20 -18 -62 -63q-32 -52 -32 -109zM372 948q0 -38 23 -88l25 -55l37 -49l68 -86l43 25l65 53q43 30 74 80q31 47 31 102q0 53 -31 102 q-35 50 -88 68q-19 4 -39 8q-21 2 -35 4q-35 0 -55 -6q-23 -6 -54 -26q-43 -29 -59 -86z" />
<glyph unicode="'" d="M356 797l267 749l278 -90l-268 -749z" />
<glyph unicode="(" d="M334 629q0 119 19 217q10 55 18 88q2 8 22 74q21 65 25 78q18 39 27 57q20 45 47 90q24 45 63 98q72 101 174 207h232l-117 -147l-37 -47l-31 -45l-53 -80q-31 -51 -61 -121q-31 -72 -56 -150q-43 -161 -43 -319q0 -176 43 -322q41 -147 99 -243q30 -51 57 -89 q25 -39 50.5 -74.5t52.5 -66.5q24 -33 98 -121h-234q-98 102 -170 203q-41 59 -67 105q-17 30 -58 112q-43 109 -75 246q-25 133 -25 250z" />
<glyph unicode=")" d="M170 -287q86 100 139 174q54 72 78 113q25 39 39 68q23 43 49 100q36 76 68 187q15 59 23 127q8 65 8 147q0 70 -6 129q-6 57 -22 119q-23 123 -69 211q-20 51 -59 114q-14 27 -49 78q-60 94 -199 258h232l90 -98l78 -100q18 -27 34 -50q17 -24 34.5 -55t31.5 -57 q12 -29 29 -68q29 -63 43 -112l37 -142q8 -45 14 -104q6 -62 6 -123q0 -129 -18 -225q-10 -54 -18 -82q-15 -47 -21 -68q-14 -53 -56 -145q-20 -43 -47 -88q-26 -46 -59 -93q-64 -98 -180 -215h-230z" />
<glyph unicode="*" d="M185 1020v217l268 -14l-143 221l186 109l121 -240l123 238l186 -103l-141 -225l262 14v-217l-262 14l146 -225l-196 -106l-118 235l-125 -235l-182 102l143 229zM597 1123l3 -13q0 -4 13 -8q12 4 16 8l11 13l-7 20l-10 6l-19 -10q-4 -2 -7 -16z" />
<glyph unicode="+" d="M70 529v206h444v496h209v-496h441v-206h-441v-496h-209v496h-444z" />
<glyph unicode="," d="M172 -334q133 57 197 108q31 23 55 50q23 24 45 59q33 64 41 113l17 111q4 39 6 82v69h291l-4 -229q0 -35 -4 -62q-6 -29 -14 -55q-11 -29 -17 -47q-17 -60 -35 -95q-21 -36 -78 -108q-31 -39 -74 -70q-43 -33 -102 -59q-107 -45 -293 -74z" />
<glyph unicode="-" d="M189 365v203h854v-203h-854z" />
<glyph unicode="." d="M469 258h293v-529h-293v529z" />
<glyph unicode="/" d="M-51 -500l1108 2038h227l-1118 -2038h-217z" />
<glyph unicode="0" d="M97 631l2 141l2 162q0 45 4 72q2 24 6 41q2 14 11 53q6 37 18 76t38 106q43 113 170 195q125 80 269 80q141 0 268 -74q113 -72 182 -219q31 -68 47 -150q17 -82 17 -182l6 -301v-162l-6 -141q0 -92 -15 -174q-16 -84 -49 -154q-63 -137 -184 -213t-266 -76 q-154 0 -271 80q-116 80 -180.5 214.5t-64.5 322.5l-2 160zM330 373q0 -31 2.5 -64.5t10.5 -86t28 -121.5q20 -72 94 -122q72 -50 154 -50q73 0 149 48q74 48 101 148l22 117q8 65 10 92v41l7 260l-7 258q0 129 -26 240q-29 110 -101 157q-67 50 -151 50q-88 0 -160 -50 q-70 -43 -92 -118l-30 -146q-8 -61 -8 -88q-3 -26 -3 -45v-258v-262z" />
<glyph unicode="1" d="M133 -271l23 209h389v1359l-328 -90l-49 204l529 144l69 -89v-1528h385l-28 -209h-990z" />
<glyph unicode="2" d="M80 1030q29 107 55 179q27 69 64 129q70 112 188 168q117 53 244 53q68 0 95.5 -4t76.5 -20q78 -21 156 -72q78 -54 133 -142q53 -90 53 -209v-53q-6 -35 -10 -61.5t-37 -110.5q-35 -86 -102 -178q-39 -55 -64 -86q-37 -47 -78 -94l-43 -50l-28 -36l-50 -58l-135 -170 l-125 -162l-84 -115h766l-22 -209h-1024v188l174 236l196 254l68 87l70 84l55 65l39 52l47 57l39 47l47 72q29 41 53 108q8 27 15 58q6 28 6 55q0 63 -31 123q-31 57 -102.5 94t-153.5 37q-76 0 -131 -28q-57 -30 -90 -68q-35 -41 -57 -82l-37 -80q-19 -39 -39 -105z" />
<glyph unicode="3" d="M57 1325l23 209h1016l20 -188l-473 -451h-30q14 -4 18 -4q23 0 43 -6q21 -6 53 -14q33 -9 59.5 -19t61.5 -28q23 -13 57 -35q35 -25 64 -49q68 -72 106 -168q39 -99 39 -197q0 -57 -12 -111.5t-43 -119.5q-51 -119 -203 -230q-137 -103 -321 -156l-60 -14l-63 -10 l-74 -11l-63 -4l-166 -8l-23 211q233 0 352 27q53 10 107 28q51 17 98 42q82 43 147 114q66 70 81 136q18 67 18 110q0 66 -29 129q-28 64 -63 94q-35 31 -70 52q-10 6 -26 14q-19 6 -52 16q-28 6 -59 10.5t-76 4.5l-88 -2q-14 0 -45 -5q-33 -6 -84 -16l-35 135l531 514 h-736z" />
<glyph unicode="4" d="M70 166l291 1389l207 -23l-240 -1157h468v864l222 29v-893h170l-29 -209h-141v-435l-222 -22v457h-726z" />
<glyph unicode="5" d="M121 -84l188 4l130 14q16 2 36 6q21 2 33 9l82 22q64 19 150 84.5t137 149.5t51 178l-2 35q-10 80 -41 131q-33 49 -80 82q-47 31 -94 41q-47 8 -82 12q-37 4 -80 4q-82 0 -168 -14t-211 -49v909h969l-59 -209h-689v-450q123 20 197 20q57 0 82 -2q22 -4 74 -14 q49 -10 86 -25.5t84 -48.5q82 -49 145 -139q27 -37 49 -86q21 -51 35 -107l2 -39l6 -51q0 -133 -63 -248q-56 -104 -142 -178q-24 -21 -67 -54q-43 -32 -55 -40l-115 -58l-121 -39q-18 -6 -57 -14t-70 -16l-133 -17q-68 -6 -178 -6z" />
<glyph unicode="6" d="M88 746v47q0 129 12.5 232.5t51.5 209t117 178.5q32 33 77 60q43 26 93 47q104 35 200 35q62 0 99 -4q34 -7 90 -25q53 -14 112 -47q58 -35 137 -102l-137 -154q-84 63 -155 94q-74 31 -140 31q-57 0 -176 -35t-141 -250l-6 -110l-4 -109l2 -63q82 57 186 96 q80 24 156 24q116 0 207 -39q90 -41 155 -129q60 -77 91.5 -192t31.5 -240q0 -65 -4 -106t-20 -94q-15 -58 -29 -95t-37 -74q-25 -39 -55.5 -69.5t-69.5 -59.5q-41 -29 -80 -45q-39 -18 -82 -31q-39 -8 -71.5 -12t-71.5 -4q-156 0 -256 66q-102 65 -162 165q-22 41 -41 91 q-20 47 -31 86l-26 133l-10 90l-11 258v84zM326 447q0 -197 39 -316q61 -166 184 -197q25 -6 43 -8q19 -4 39 -4q59 0 118.5 26.5t82.5 61.5l43 70l30 90q16 62 16 144q0 98 -32 188q-27 84 -96 143q-66 50 -148 50q-135 0 -317 -136z" />
<glyph unicode="7" d="M195 -266l740 1591h-721l28 209h1024l-850 -1825z" />
<glyph unicode="8" d="M72 211l2 51l15 105q16 90 119 182q82 72 194 127q-82 47 -149 115q-80 82 -101 172q-16 88 -16 133q0 90 37 174q34 82 102 145q65 64 135 95l108 36l97 9q47 0 96 -9q47 -8 92 -26q88 -39 158 -105q63 -55 105 -143q16 -41 26 -86q9 -47 9 -96l-3 -37l-14 -96 q-8 -41 -33.5 -82t-72.5 -86q-66 -66 -148 -113q107 -53 189 -123q104 -88 137 -237l8 -97q0 -141 -74 -260q-74 -121 -199 -185.5t-274 -64.5q-146 0 -277 65q-61 31 -104 70q-45 37 -76 82q-53 84 -71 150q-8 33 -12 66q-5 30 -5 69zM298 197q0 -78 42 -141 q41 -66 111 -97q74 -37 166 -37q73 0 131 20q55 21 98 58q45 43 70 94q23 52 23 115q0 31 -8 60q-23 102 -105 165q-43 35 -93 64q-49 27 -116 59q-33 -14 -70 -32q-39 -19 -72 -39q-67 -37 -110 -93q-45 -49 -57 -122zM359 1086l6 -60q11 -30 21 -47q8 -18 32 -47 q39 -45 88 -76l113 -69q112 67 172 116q58 50 70 97q10 45 14 88q0 71 -33 127q-35 55 -94 94q-60 37 -133 37q-70 0 -125.5 -35t-91.5 -96q-39 -64 -39 -129z" />
<glyph unicode="9" d="M86 961q0 233 68 342q67 106 147 164q72 49 158 72q86 16 145 16q160 0 265 -67q102 -68 143 -144q12 -20 33 -61q18 -43 24 -60l33 -105l19 -98l8 -82l14 -272l4 -193q0 -188 -37 -350t-127 -248q-92 -88 -188 -125t-205 -37q-100 0 -168 23q-37 10 -57 18q-21 6 -29 10 l-45 29l-135 96l137 158q103 -78 162 -105q29 -10 57 -16q27 -8 72 -8q61 0 125 18q63 19 104 58q41 37 58 82q16 43 18 66l12 65l10 105l4 120v52q-94 -63 -177 -92q-86 -31 -168 -31q-103 0 -201 45q-53 26 -92 57t-72 78q-33 45 -53.5 88t-36.5 104q-29 115 -29 228z M309 951q0 -101 33 -187q31 -88 97 -141q65 -49 147 -49q143 0 319 133v94v25v65q-6 70 -10 121t-49 174q-37 113 -106 134l-93 22l-43 2q-63 0 -120 -24q-58 -27 -115 -116q-60 -88 -60 -253z" />
<glyph unicode=":" d="M469 156h293v-426h-293v426zM469 441v426h293v-426h-293z" />
<glyph unicode=";" d="M156 -246q156 72 219 127q61 49 90 127q29 76 47 250h295v-28q0 -88 -8 -131q-6 -58 -27 -142q-22 -86 -63 -140l-68 -81q-16 -15 -32 -31q-9 -6 -29 -21l-51 -32q-11 -9 -23 -15q-12 -8 -33 -14l-90 -33q-14 -6 -37 -10q-22 -6 -53 -12l-104 -23zM518 441v426h289v-426 h-289z" />
<glyph unicode="&#x3c;" d="M37 633q0 53 39 82l82 41l797 365q53 28 96 28q74 0 92 -78q0 -92 -100 -131l-670 -307l672 -307q98 -53 98 -135q-8 -37 -31.5 -58.5t-62.5 -21.5q-25 0 -43 6q-19 4 -51 20l-795 371q-25 12 -49 27q-25 12 -37 20q-37 29 -37 78z" />
<glyph unicode="=" d="M70 385v205h1094v-205h-1094zM70 674v200h1094v-200h-1094z" />
<glyph unicode="&#x3e;" d="M37 191q0 84 100 135l672 307l-669 307q-103 33 -103 131q21 78 88 78q27 0 51 -6q23 -8 50 -22l792 -365q25 -10 49 -21q23 -10 37 -20q39 -27 39 -82q0 -51 -39 -82q-22 -18 -86 -43l-795 -373q-20 -8 -45 -14q-24 -8 -49 -10q-73 0 -92 80z" />
<glyph unicode="?" d="M82 1008q33 207 117 330q84 120 211 163q127 41 229 41q47 0 69.5 -2t74.5 -12q49 -12 73 -20q25 -9 49 -27q48 -25 74 -47q15 -8 29 -23q12 -16 34.5 -41.5t41.5 -58.5q18 -35 28 -74q29 -86 29 -168q0 -90 -33 -168q-18 -43 -37 -73q-18 -31 -53 -70 q-35 -41 -63.5 -70.5t-75.5 -68.5l-107 -101q-10 -14 -14 -22q-6 -8 -12 -27l-11 -63l-6 -109h-225l-4 84l2 53l8 60q6 37 33 92q27 47 72 92l45 39l57 53q59 49 92 86q15 13 29 31q6 8 20 27l37 63q19 37 19 98q0 33 -17 103q-18 67 -90 110q-72 41 -164 41q-45 0 -129 -22 q-71 -23 -123.5 -98.5t-105.5 -239.5zM469 156h289v-426h-289v426z" />
<glyph unicode="@" d="M99 154l2 33q0 65 12 117.5t18 70.5q4 16 23 61q18 46 43 78q22 33 61 66q76 59 178 59q82 0 183 -47l37 47l163 -28v-543v-25l-2 -22q0 -25 2 -48q0 -22 13 -33q8 -10 30 -14q17 0 25 8l21 23q6 20 12 37l8 39l2 49l6 191v104l-2 88l-2 152l-2 164q0 110 -33 176 q-26 69 -90 114q-65 43 -176 43q-72 0 -141 -28q-70 -31 -107 -111l-35 -106l-28 -160l-207 37q0 96 10 145l25 107q8 28 22 59q13 29 33 57q18 27 35 45q16 19 43 43q45 35 96 62q49 26 105 41q28 6 54.5 10t57.5 4h39q119 0 207 -37q51 -18 92 -43q39 -24 74 -59 q35 -37 61 -76q27 -41 41 -74q8 -24 19 -59q10 -37 18 -61q8 -50 10 -68v-43v-195v-163v-74l-2 -74l-6 -205q0 -39 -6 -73q-6 -38 -23 -83q-26 -86 -75 -137t-115 -68l-41 -10l-43 -4q-111 0 -195 96q-98 -86 -200 -96h-25q-106 0 -184 70q-72 57 -100 147q-13 39 -19 64 q-8 25 -14 59zM328 160q0 -115 37 -177.5t92 -62.5q63 0 141 70v391q-14 8 -41 23q-28 12 -32 14q-33 12 -68 14q-55 0 -92 -57q-37 -68 -37 -195v-20z" />
<glyph unicode="A" d="M51 -269l428 1793l252 16l451 -1809l-223 -22l-107 480h-479l-109 -480zM418 400h384l-189 784z" />
<glyph unicode="B" d="M21 -62h175v1375h-175l22 211h414l156 -6q51 -4 82 -8q30 -6 81 -21q99 -22 168 -98q62 -66 88 -133q27 -70 27 -156v-39q0 -55 -6 -96q-6 -43 -25 -84q-30 -70 -90 -133q-12 -12 -37 -31q-26 -18 -47 -27l76 -49q68 -41 140.5 -139t72.5 -285q0 -41 -6 -77 q-8 -37 -14 -60q-13 -31 -19 -47q-20 -64 -78 -127q-51 -62 -143 -107q-86 -47 -201 -60q-117 -12 -278 -12h-361zM418 -62h86h23q38 0 75 2t70 8q33 4 62.5 16.5t58.5 29.5q31 23 51 45q18 21 33 53q31 66 31 144l-3 51l-12 51q-2 10 -8 27q-12 22 -18 37q-21 37 -66 80 q-20 18 -43 34q-25 15 -41 21l-70 22l-59 9l-145 6h-25v-636zM418 791h18q129 0 211 16q80 14 138 72q49 55 49 174q0 61 -13 102q-12 41 -53 84q-35 41 -108 58q-76 16 -191 16h-51v-522z" />
<glyph unicode="C" d="M131 678v92t9 115q0 57 8 106l14 80l14 62q2 16 8.5 36.5t20.5 57.5t33 68q16 30 41 61q22 31 44.5 52.5t57.5 45.5q55 41 125 63.5t150 22.5q141 0 266 -71q57 -35 107.5 -101.5t95.5 -167.5l-205 -104q-49 123 -109 178q-59 53 -141 53q-49 0 -113 -20 q-63 -21 -112 -113q-52 -94 -63 -188l-15 -156l-4 -141v-80v-82l2 -135q0 -27 4 -59q2 -33 13 -115q9 -84 59 -176q49 -95 112 -115q33 -9 63.5 -15t49.5 -6q84 0 158 64q71 63 141 201l184 -103q-47 -98 -84 -156q-39 -59 -80 -94q-75 -64 -143 -94q-66 -27 -145 -27 l-52 -4q-61 0 -106 14l-60 19l-55 26q-14 7 -28 17q-17 10 -31 22q-17 11 -82 72q-33 33 -53 74q-23 39 -39 96l-37 177q-12 73 -12 157l-7 183z" />
<glyph unicode="D" d="M21 -62h175v1375h-175l22 211h445q223 0 354 -66q129 -65 190 -190q31 -64 50 -123q18 -61 33 -172q12 -113 12 -344q0 -233 -18 -383q-19 -152 -72 -242q-54 -92 -107 -137q-55 -47 -160 -93q-106 -45 -329 -45h-398zM418 -62h21l147 6l57 14q17 2 29 7q25 10 41 16 q37 17 76 58q20 19 32 37q13 16 32.5 53t35.5 129q14 92 14 232v78l-2 63l2 57v72q0 139 -16 250q-16 108 -68 170q-45 59 -108 88q-27 15 -53 23q-29 8 -68 14l-88 4l-84 5v-1376z" />
<glyph unicode="E" d="M170 -271v1795h953l28 -211h-760v-522h576l-23 -209h-553v-644h816l-23 -209h-1014z" />
<glyph unicode="F" d="M189 -291v1815h960l23 -211h-760v-522h684l-23 -209h-661v-851z" />
<glyph unicode="G" d="M105 596l3 115l4 160q0 82 15 163q12 82 45 183q31 121 123 196q37 33 86 59.5t84 39.5q86 28 172 28l53 -2q127 -12 230 -94q53 -41 90 -86t80 -131l-178 -115q-80 123 -140 170q-61 45 -135 45l-35 -4l-75 -18q-41 -8 -86 -74q-43 -57 -66 -129l-25 -108l-8 -84 l-8 -197v-84v-84q0 -160 14 -274q9 -64 23 -113q14 -51 43 -105q47 -86 100 -102l88 -21l50 -4q104 0 225 74v514h-344l28 209h537v-842l-135 -84q-51 -31 -113 -49q-104 -35 -209 -35q-106 0 -196 39q-43 16 -74 34.5t-64 49.5q-57 51 -94 117q-37 64 -76 203 q-16 67 -24 171.5t-8 268.5z" />
<glyph unicode="H" d="M150 -291v1813l217 18v-788h500v770l221 18v-1809l-221 -22v828h-500v-806z" />
<glyph unicode="I" d="M281 -271l22 209h203v1375h-225l22 211h648l-27 -211h-197v-1375h224l-27 -209h-643z" />
<glyph unicode="J" d="M74 189l174 118l70 -172q24 -49 61 -96q37 -49 78 -72t70 -27l63 -10q121 0 162 74q49 78 49 219v1299l221 18v-1325q0 -502 -422 -502q-139 0 -239.5 58.5t-173.5 166.5q-64 95 -113 251z" />
<glyph unicode="K" d="M185 -291v1813l223 18v-845h-12l632 854l179 -99l-613 -829l690 -887l-239 -23l-643 818l6 -798z" />
<glyph unicode="L" d="M196 -271v1793l222 18v-1602h782l-18 -209h-986z" />
<glyph unicode="M" d="M69 -291v1813l302 18l254 -723l252 707l287 16v-1809l-222 -22v1416l-315 -840l-336 846v-1400z" />
<glyph unicode="N" d="M133 -291v1813l289 18l451 -1222v1204l223 18v-1809l-211 -22l-530 1397v-1375z" />
<glyph unicode="O" d="M90 627q0 229 21 391q20 160 74 256q22 41 49 80q26 37 47 59q53 50 131 88q76 37 205 37q121 0 204 -43q74 -35 136 -94q59 -63 86 -117q24 -53 45 -125q2 -6 12 -51t18 -92l13 -115l10 -147l2 -152l-6 -196q0 -51 -8 -101l-13 -79l-12 -76q-6 -53 -35 -121 q-26 -72 -82 -146q-53 -66 -155 -117q-105 -53 -215 -53q-121 0 -224 51q-131 68 -192 187q-64 117 -88 285q-10 76 -16 178q-7 100 -7 213zM320 629l4 -156l2 -112l16 -133q0 -23 4 -35l21 -70q14 -39 45 -82q29 -45 80 -79t125 -34q73 0 145 45q70 46 94 128q15 59 23 92 t12 53l10 109l10 131l4 127l-8 133l-6 153l-2 62q0 20 -14 78q-10 59 -10 67q-2 6 -10 23l-35 80q-21 38 -76 79q-64 39 -139 39q-70 0 -129 -39q-54 -30 -90 -94q-11 -20 -21 -45q-16 -41 -24 -80l-18 -96l-5 -74l-4 -135z" />
<glyph unicode="P" d="M185 -291v1814h378l154 -6q41 0 59 -4q27 -2 91 -28q67 -18 137 -80q35 -28 65 -69q31 -43 54 -97q43 -104 43 -233l-7 -96q-4 -37 -6 -52q-4 -14 -12 -43q-10 -30 -38 -90q-31 -61 -78 -102q-15 -14 -29 -27q-27 -22 -49 -37q-37 -26 -105 -47q-51 -18 -137 -28l-172 -7 h-71h-54v-746zM408 686h54h36l35 -2q139 0 213 21q67 22 108 67q41 43 64 103q20 59 20 127q0 61 -18 119q-21 57 -53 102q-19 18 -39 37q-23 16 -52 28q-90 27 -217 27h-86h-51h-14v-629z" />
<glyph unicode="Q" d="M90 584l9 285q0 84 12 161q12 78 45 189q31 110 143 211q29 22 68 42.5t82 39.5q82 28 168 28q84 0 254 -55q168 -57 213 -281l45 -241l6 -94l4 -131l4 -105l-4 -217v-68q-6 -28 -8 -41l-23 -143q-12 -90 -63 -193l194 -242h-266l-70 80q-131 -96 -268 -96l-57 4 q-66 0 -119 21q-53 18 -139 77q-88 60 -144 172q-41 105 -63.5 254.5t-22.5 342.5zM320 555q0 -125 8 -217q0 -49 6 -88t19 -86q32 -100 89.5 -162t147.5 -72l31 -2q76 0 145 51l-411 505h272l250 -314l16 82l19 176l6 172q0 162 -19 326q-8 84 -20 143q-14 60 -37 111 q-37 90 -104 119q-68 26 -121 26q-56 0 -105 -22q-51 -25 -88 -70q-22 -31 -37.5 -59.5t-27.5 -67.5l-23 -88l-4 -63l-8 -187z" />
<glyph unicode="R" d="M189 -291v1814h327l109 -2q24 0 53 -2q27 -2 55 -8q54 -6 146 -57q90 -51 137 -141q18 -33 37 -72q16 -41 24 -63q19 -55 19 -115l2 -43q0 -55 -6 -96t-25 -90q-24 -86 -92 -160q-49 -59 -125 -98l359 -842l-215 -25l-347 807l-67 -4l-94 -4l-74 2v-779zM412 719h35 l59 -2q33 0 65.5 2t57.5 6t49 10q25 5 62 21q34 14 67 53q29 39 47 88q6 31 11 56q4 22 4 55v24q0 15 -4.5 38.5t-8.5 41t-10 35.5q-8 17 -31 62q-22 43 -90 79q-76 27 -188 27h-70l-49 -2z" />
<glyph unicode="S" d="M70 234l188 86q23 -74 41 -119q17 -47 37 -88q33 -72 107 -134q63 -57 176 -57q102 0 167.5 46.5t98.5 101.5q31 59 31 129l-2 39q-6 55 -45 100q-39 51 -96 96t-123 84l-131 74q-107 57 -180.5 110.5t-137.5 129.5q-28 41 -47.5 80t-31.5 86l-9 49v41q0 88 35 170 q32 88 96 147q33 33 68 55q34 23 81 43q95 39 203 39q207 0 338 -125q68 -61 113 -145q43 -86 76 -219l-197 -49l-33 92l-33 76q-26 49 -79 92q-27 26 -82 47q-23 8 -45.5 12t-51.5 4q-71 0 -137 -30q-55 -23 -92 -82q-36 -62 -36 -125l2 -31q6 -51 53 -108q24 -27 51 -50 q25 -24 43 -36l80 -50l106 -59l127 -70q13 -8 62 -39q47 -32 90 -69q61 -49 111 -125q49 -78 63 -133q12 -58 12 -88l2 -35q0 -60 -4 -92q-6 -35 -24 -78q-29 -78 -89 -140q-57 -65 -153 -121q-99 -55 -248 -55q-203 0 -352 131q-70 64 -119 162q-51 97 -80 230z" />
<glyph unicode="T" d="M62 1313l22 211h1088l-23 -210l-422 -1v-1582l-221 -22v1604h-444z" />
<glyph unicode="U" d="M150 252v1270l221 18v-1321q0 -147 53 -219q51 -74 193 -74q137 0 192 76q53 76 53 217l1 1303l221 18v-1288q0 -172 -39 -287q-41 -115 -125 -168q-39 -25 -72 -39q-35 -17 -80 -27q-47 -12 -76 -14q-30 -4 -75 -4q-172 0 -277 66q-104 65 -151 188q-39 117 -39 285z " />
<glyph unicode="V" d="M17 1522l215 20l381 -1290l391 1290l213 -20l-557 -1793h-115z" />
<glyph unicode="W" d="M43 1522l209 20l123 -1138l242 790l248 -790l116 1138l209 -20l-188 -1793h-131l-254 812l-250 -812h-131z" />
<glyph unicode="X" d="M51 -266l457 930l-418 856l213 20l318 -641l315 641l215 -20l-418 -856l459 -930l-213 -25l-358 727l-355 -727z" />
<glyph unicode="Y" d="M35 1520l217 20l365 -778l368 778l215 -20l-473 -1012v-777l-221 -22v791z" />
<glyph unicode="Z" d="M68 -197l805 1510h-772l22 211h1053l-2 -98l-790 -1488h796l-23 -209h-1060z" />
<glyph unicode="[" d="M445 -271v1795h432l22 -211h-231v-1375h231l-22 -209h-432z" />
<glyph unicode="\" d="M-51 1538h225l1110 -2038h-219z" />
<glyph unicode="]" d="M285 -62h233v1375h-233l22 211h433v-1795h-433z" />
<glyph unicode="^" d="M230 975q0 31 19 53l278 349q22 43 88 43q61 0 94 -41l275 -351q20 -24 20 -51q0 -14 -4 -26q-4 -15 -19 -33q-28 -31 -57 -31q-27 0 -47 18l-260 259l-258 -259q-11 -10 -47 -18q-31 0 -60 27q-20 28 -22 61z" />
<glyph unicode="_" d="M-30 -805h1294v-170h-1294v170z" />
<glyph unicode="`" d="M252 1747h299l289 -481h-202z" />
<glyph unicode="a" d="M109 453q0 272 98 491q96 220 342 246l53 2q50 0 88 -6q39 -6 86 -25l86 -43l35 -20v76l221 18v-1461l-221 -22v108q-57 -40 -100 -63q-45 -23 -84 -33q-41 -10 -92 -10q-78 0 -178 35q-101 33 -187 149q-86 118 -116.5 265t-30.5 293zM330 457q0 -131 17 -229 q14 -101 63 -179q47 -80 115 -102q79 -23 120 -23q52 0 111 27q45 18 141 86v828l-137 86q-57 28 -133 28l-62 -6q-133 -14 -184 -166q-51 -151 -51 -350z" />
<glyph unicode="b" d="M129 -291v1813l221 18v-442q154 94 295 94l58 -2q241 -24 344 -252q92 -215 92 -485v-23q0 -149 -31 -288q-33 -142 -114 -251q-80 -114 -173 -139q-79 -27 -124 -33l-70 -8q-84 0 -160 35q-28 16 -53 30.5t-64 40.5v-86zM350 37l140 -86q51 -27 116 -27q43 0 138 29 q92 28 135 167.5t43 334.5l-12 178q0 19 -7 41q-6 23 -8 35l-28 100q-19 53 -66 105q-49 51 -121 59l-59 6q-72 0 -113 -20l-88 -51l-70 -43v-828z" />
<glyph unicode="c" d="M133 453v115q7 51 9 75q10 103 38 193q29 88 80 158q45 59 111 108q33 23 68 41q34 16 75 27q86 20 144 20q157 0 276 -82q113 -71 195 -239l-178 -129q-35 69 -68 116q-35 45 -66 70q-63 51 -151 51q-45 0 -135 -20q-82 -15 -127 -156q-45 -143 -45 -348l2 -82v-31 t8 -61l6 -68q4 -24 10 -45.5t17 -48.5q20 -59 67 -113q43 -53 86 -62l70 -14l45 -2q84 0 147 51q58 44 144 179l172 -107q-53 -113 -123 -189q-59 -69 -154 -111q-43 -16 -92 -26q-51 -10 -104 -10q-88 0 -156 24q-29 8 -49 16q-33 15 -84 50q-27 17 -53.5 44.5t-53.5 62.5 q-75 100 -98 205l-24 172z" />
<glyph unicode="d" d="M109 453q0 272 98 491q96 220 342 246l53 2q50 0 88 -6q39 -6 86 -25l86 -43l35 -20v424l221 18v-1809l-221 -22v108q-57 -40 -100 -63q-45 -23 -84 -33q-41 -10 -92 -10q-78 0 -178 35q-101 33 -187 149q-86 118 -116.5 265t-30.5 293zM330 457q0 -131 17 -229 q14 -101 63 -179q47 -80 115 -102q79 -23 120 -23q52 0 111 27q45 18 141 86v828l-137 86q-57 28 -133 28l-62 -6q-133 -14 -184 -166q-51 -151 -51 -350z" />
<glyph unicode="e" d="M94 445l5 155q0 178 61 305q33 66 74 113q39 45 100 86q123 88 287 88q88 0 178 -31q141 -57 217 -165q35 -54 59 -111q23 -59 36 -125q12 -65 18 -147t6 -191h-819l12 -145q0 -70 31 -156q14 -41 30 -70q15 -28 41 -53q49 -49 127 -64l86 -8q97 0 166 51q37 27 72 70 q33 43 78 123l178 -92q-47 -99 -96 -164q-50 -68 -109 -113q-117 -88 -287 -88h-30l-105 8q-78 0 -186 82q-94 70 -146 174q-22 50 -38 99q-17 47 -25 88l-16 148zM324 635h586q-22 154 -84 248q-64 94 -209 94q-146 0 -207 -96q-64 -98 -86 -246z" />
<glyph unicode="f" d="M217 965l23 211h225q0 142 52.5 236t160.5 112l125 14l47 2q88 0 176 -14q86 -14 205 -53l-65 -197l-179 43q-32 6 -63 10t-66 4h-28l-49 -8h-2q-56 0 -72 -38q-19 -41 -19 -111h424l-18 -211h-408v-1233l-221 -23v1256h-248z" />
<glyph unicode="g" d="M101 584q0 164 43 291q43 125 116 190q74 66 142 99q67 26 141 26l59 4q86 0 166 -26q41 -15 69 -27q15 -6 47 -25v58l222 18v-1124q0 -228 -82 -353q-84 -127 -229 -156q-148 -28 -211 -28q-59 0 -105 6q-45 6 -98 24q-65 19 -108 37q-45 17 -136 64l95 184l112 -53 l97 -37q22 -6 59 -12t88 -6q47 0 119 18q63 12 108 53q21 19 35 41q12 21 22 47q8 27 12 58q5 28 5 72l-2 37q-25 -17 -61.5 -35.5t-57.5 -26.5q-78 -31 -162 -31q-59 0 -194 33t-223 201t-88 379zM324 563q0 -92 18 -170q21 -67 68 -122q45 -58 121 -76l92 -10q59 0 121 18 q26 8 61 25q20 8 79 38v627q-83 43 -157 68q-75 22 -135 22q-127 0 -196 -94q-72 -96 -72 -305v-21z" />
<glyph unicode="h" d="M157 -291v1813l222 18v-493q19 14 51 39q33 22 84 55q105 55 209 55l37 -2q102 0 172 -41q68 -41 123 -157q22 -56 34.5 -138t12.5 -194v-933l-217 -22v904q0 116 -10 192t-56 129q-45 51 -143 51q-39 0 -88 -16q-27 -10 -43 -18q-18 -9 -35 -23q-41 -25 -67 -53l-41 -45 l-23 -31v-1068z" />
<glyph unicode="i" d="M297 -271l29 213h203v1019h-232l29 215h426v-1234h231l-28 -213h-658zM465 1403q0 41 17 82q14 39 57 72l37 16q22 8 51 8q47 0 98 -39q27 -18 42.5 -53t15.5 -86q0 -49 -15 -88q-16 -41 -57 -70q-43 -24 -88 -24q-47 0 -103 39q-55 37 -55 143z" />
<glyph unicode="j" d="M176 -447l17 209q108 -16 170 -16q47 0 73 6q27 4 56 18q41 23 63 86q23 62 23 165v35v1118l221 18v-1200q0 -461 -418 -461q-80 0 -205 22zM520 1405q0 47 17 84q16 35 57 68l37 16q23 8 51 8q45 0 82 -28q33 -21 55 -66l17 -49l2 -35q0 -53 -14 -90q-17 -39 -62 -68 q-45 -24 -86 -24q-49 0 -102 39q-54 37 -54 145z" />
<glyph unicode="k" d="M230 -291v1813l217 18v-909l508 571l157 -133l-483 -549l625 -719l-195 -96l-608 705l-4 -679z" />
<glyph unicode="l" d="M281 -271l28 213h205v1367h-233l28 215h426v-1582h232l-29 -213h-657z" />
<glyph unicode="m" d="M17 -291v1465l223 18v-86q96 84 196 84q101 0 168 -47q43 -27 76 -84q117 131 277 131q149 0 204 -110q54 -113 54 -265v-1084l-226 -22v1092l-6 98q-4 31 -22 56q-19 22 -60 22q-47 0 -90 -29q-43 -28 -84 -81v-1136l-221 -22v1092q0 94 -20 135q-17 41 -72 41 q-47 0 -90 -29q-45 -28 -84 -81v-1136z" />
<glyph unicode="n" d="M157 -291v1465l222 18v-145q19 14 51 39q33 22 84 55q105 55 209 55l37 -2q102 0 172 -41q68 -41 123 -157q22 -56 34.5 -138t12.5 -194v-933l-217 -22v904q0 116 -10 192t-56 129q-45 51 -143 51q-39 0 -88 -16q-27 -10 -43 -18q-18 -9 -35 -23q-41 -25 -67 -53l-41 -45 l-23 -31v-1068z" />
<glyph unicode="o" d="M92 455l2 137l21 152q22 118 92 231t182 168q60 25 113 37t115 12q112 0 209 -41q94 -41 151 -110q55 -62 96 -152q37 -88 54 -205q16 -116 16 -241q0 -121 -16.5 -224.5t-51.5 -191.5q-18 -48 -38 -83q-23 -36 -58 -77q-55 -60 -158 -109q-47 -21 -98 -33 q-53 -12 -104 -12q-111 0 -281 76q-176 84 -209 281q-24 164 -32 254zM314 424q0 -160 43 -289q43 -131 114 -169q84 -38 148 -38q61 0 119 28q77 31 114 114q37 80 53 184q8 51 12 98.5t4 100.5q0 96 -8 172q-10 74 -22 117q-12 41 -37 92q-39 86 -104 112q-72 33 -133 33 q-66 0 -121 -26q-57 -29 -78 -60q-22 -33 -43 -65l-25 -64l-17 -57q-5 -15 -5 -33v-31l-10 -121z" />
<glyph unicode="p" d="M133 -463v1637l222 18v-86q72 43 143 66q72 20 145 20l60 -2q80 0 137 -22q55 -25 94 -66q19 -20 37 -39q29 -31 35 -41l45 -69q35 -74 65 -181q27 -112 27 -268q0 -158 -25 -254q-24 -98 -53 -153q-20 -39 -35 -64q-22 -35 -53 -76q-61 -80 -168 -111q-108 -33 -180 -33 q-23 0 -49 2q-27 0 -66 15q-43 12 -83 35l-66 43l-10 4v-346zM355 125l98 -55l74 -33q38 -8 53 -8q12 -2 31 -2l38 2q23 0 101 22q78 23 125 152t47 301l-6 102l-17 111q-22 98 -71 172q-52 72 -146 84l-47 4q-63 0 -139 -29q-31 -12 -49 -22q-43 -23 -92 -53v-748z" />
<glyph unicode="q" d="M101 504q0 78 8 156t27 151q40 150 136.5 253.5t268.5 125.5l57 2q146 0 286 -86v68l222 18v-1626l-222 -29v375l-49 -33q-18 -10 -30 -16q-14 -7 -33 -13l-47 -18q-18 -6 -45.5 -12.5t-66.5 -6.5q-74 0 -174 33q-109 29 -195 139q-37 50 -66.5 111.5t-47.5 131.5 q-29 133 -29 276zM324 471q0 -188 24 -284q23 -99 80 -117l154 -39l55 -4q66 0 119 24q31 13 73 39q17 11 55 35v748l-63 37q-12 8 -38.5 20t-51.5 25q-45 22 -122 22l-48 -2q-92 -8 -143 -82q-53 -74 -73 -174q-21 -102 -21 -215v-33z" />
<glyph unicode="r" d="M289 -291v1465l221 18v-190q78 80 154 131q96 65 207 65q73 0 145 -26q70 -27 164 -97l-90 -200q-178 108 -266 108q-80 0 -146 -53l-74 -74l-47 -51l-47 -61v-1013z" />
<glyph unicode="s" d="M103 160l217 63q12 -88 39 -143q24 -55 69 -88q86 -62 195 -62q67 0 125 25q55 22 86 71.5t31 110.5l-6 52q-8 49 -51 82q-19 14 -43 30q-4 2 -52 29l-139 49q-65 23 -129 51q-63 29 -117 62q-102 65 -143 194q-20 56 -20 119q0 43 6 78q6 33 24 72q35 73 92 125 q31 26 60.5 44.5t78.5 39.5q82 28 170 28t172 -26q84 -29 164 -103q41 -37 74 -96q33 -62 70 -174l-199 -70q-64 156 -125 207q-64 51 -164 51q-55 0 -98 -18q-51 -17 -78.5 -60t-27.5 -88q0 -43 24 -86q25 -45 74 -73q29 -19 45 -27q2 0 51 -23l140 -51q57 -18 80.5 -28.5 t56.5 -28.5q55 -29 100 -66q43 -39 72 -90q59 -100 59 -209q0 -51 -10 -80l-25 -80q-10 -24 -29.5 -55t-44.5 -58q-24 -26 -61 -51.5t-80 -48.5q-90 -45 -219 -45q-107 0 -183 30q-81 23 -147 81q-68 55 -110 133q-39 64 -74 201z" />
<glyph unicode="t" d="M176 961l19 215h223v277l221 22v-299h453l-23 -215h-430v-831q0 -45 13 -92q12 -33 53 -75q39 -41 110 -41q45 0 86 14q41 15 111 60l115 -164q-86 -64 -160 -92.5t-146 -28.5q-57 0 -145 20q-90 21 -149 87q-66 68 -82 135l-21 111l-6 109v788h-242z" />
<glyph unicode="u" d="M157 240v932l222 26v-905v-33l-2 -32v-68q6 -33 10 -68.5t25 -76.5q14 -36 59 -64q43 -29 109 -29q45 0 82 12q37 13 96 53q60 40 127 120v1065l217 26v-1460l-217 -29v151l-4 -4l-71 -53q-25 -18 -58 -35q-35 -18 -72 -32q-69 -29 -147 -29l-39 2q-66 6 -125 31 q-47 22 -113 84q-53 55 -80 170q-19 103 -19 246z" />
<glyph unicode="v" d="M47 1172l209 22l375 -1011l348 1011l209 -22l-502 -1443h-98z" />
<glyph unicode="w" d="M41 1174l219 20l103 -882l254 716l260 -719l100 885l215 -20l-209 -1445h-112l-254 767l-254 -767h-109z" />
<glyph unicode="x" d="M27 -266l465 723l-456 715l228 20l353 -547l350 547l230 -20l-459 -711l471 -727l-236 -23l-356 560l-361 -560z" />
<glyph unicode="y" d="M94 1172l209 22l344 -1036l332 1036l203 -20l-406 -1275q-45 -147 -100 -229q-57 -84 -121 -104q-116 -39 -178 -39q-59 0 -106 16q-50 16 -117 64l115 153q77 -18 106 -18q104 0 160 121z" />
<glyph unicode="z" d="M125 -207l679 1172h-615l28 211h877l33 -64l-674 -1174h652l-19 -209h-924z" />
<glyph unicode="{" d="M381 369v264q94 23 121 47q12 8 23 23q8 14 14 32q8 39 10 70v51v37v283q0 59 2 108t10 109q9 59 43 123q17 30 45 55q29 25 68 43q39 16 88 24.5t133 8.5v-209l-94 -2q-20 0 -45 -10q-16 -4 -23 -23q-10 -20 -10 -86v-326v-63v-70l-2 -75q0 -21 -2 -39q-2 -21 -10 -43 q-6 -39 -45 -107q-19 -24 -37 -47q-18 -22 -45 -47q47 -41 84 -98q39 -74 49 -148q8 -76 8 -164v-77v-320q0 -72 8 -91q9 -18 27 -22q18 -6 53 -8q33 -4 84 -4v-207q-129 0 -200 22q-72 23 -119 90q-39 56 -60 144q-8 61 -8 102q-2 41 -2 66v47v285v39q0 108 -20.5 149 t-147.5 64z" />
<glyph unicode="|" d="M525 -510v2106h182v-2106h-182z" />
<glyph unicode="}" d="M318 -430h26q82 0 103 10q20 4 30 29q9 22 9 86v318v71l-2 58v65q0 27 6 57q6 31 10 48q5 16 17 47q10 28 41 67q10 17 28 35q11 10 46 43q-62 59 -93 111q-16 28 -24 55q-10 27 -19 59l-8 90l-2 99v73v326q0 62 -13 86q-4 14 -26 23q-25 8 -45.5 10t-83.5 2v209 q184 0 262 -60q78 -53 102 -153q9 -41 15 -109q6 -67 6 -149v-283v-39q0 -37 2 -65.5t10 -57.5q6 -30 23 -45l47 -28l86 -27v-262q-90 -19 -125 -45q-26 -19 -35 -49l-8 -68v-51v-39v-285v-41v-25l-2 -75q0 -44 -10 -91q-7 -51 -54 -118q-41 -74 -123 -99q-32 -10 -78.5 -16 t-117.5 -6v209z" />
<glyph unicode="~" d="M135 1118q0 54 70 138q90 86 240 86q63 0 166 -19l32 -8l31 -8l86 -19l74 -8q43 0 57 13l33 28l39 33q8 4 22 8q13 2 27 6q20 0 45 -14q35 -14 41 -68q0 -39 -26 -77q-8 -13 -12.5 -19t-33.5 -39q-86 -90 -229 -90q-72 0 -176 25l-62 14l-55 12l-49 9l-59 4 q-37 0 -58 -13l-31 -26l-34 -31q-27 -21 -56 -21q-26 0 -30 2.5t-17 14.5q-28 16 -35 67z" />
<glyph unicode="&#xa1;" d="M469 1098v426h293v-426h-293zM484 -271l41 1226h186l43 -1226h-270z" />
<glyph unicode="&#xa2;" d="M125 621q0 127 37 217q25 53 42 82q14 28 34 55q21 27 41 49q21 23 47 43q47 35 107 66q47 18 104 31v366l190 25v-389q60 -9 124.5 -37.5t117.5 -69.5q31 -22 57 -51q25 -31 64 -86l-166 -133q-39 53 -70 86q-33 30 -71 53q-72 37 -144 37q-74 0 -137 -41 q-59 -35 -100 -111q-43 -75 -43 -180q0 -154 79.5 -240t198.5 -86q66 0 146 37q45 21 75 45q31 25 74 80l166 -131q-88 -104 -178 -160.5t-193 -78.5l1 -365l-191 -25v390q-190 32 -301 181.5t-111 340.5z" />
<glyph unicode="&#xa3;" d="M37 -105q90 74 146 136q53 59 86 121q57 112 57 268q0 72 -12 174h-213l22 209h162l-8 64l-13 110l-4 94q0 138 39 234q19 43 40.5 71.5t58.5 61.5q65 63 141 86q78 27 170 27q176 0 272 -105q43 -45 72 -123q15 -35 21 -76q6 -40 6 -110h-209q-10 61 -24 96 q-17 33 -46 62q-41 43 -113 43q-47 0 -133 -31q-39 -14 -53 -70q-16 -57 -16 -170q0 -51 12 -159l10 -105h332l-23 -209h-276q12 -108 12 -182q0 -119 -32 -211q-23 -74 -80 -170l34 2q80 0 111 -10l102 -46q62 -30 125 -43l27 -2q45 0 74 35q26 39 32 86l9 72l4 98h213 q0 -182 -17 -262q-18 -82 -82 -139q-55 -60 -129 -86q-65 -27 -149 -27q-82 0 -148 27l-100 43l-90 41q-29 10 -39 10h-16q-72 0 -211 -113z" />
<glyph unicode="&#xa4;" d="M82 463l191 191q-66 108 -66 231q0 119 66 231l-191 199l115 115l192 -199q119 74 234 74q117 0 233 -74l195 199l117 -117l-201 -199q74 -114 74 -229q0 -113 -74 -233l199 -189l-117 -119l-193 191q-53 -33 -112 -49q-60 -19 -121 -19q-123 0 -234 68l-190 -191z M366 883q0 -72 35 -125q33 -55 95 -90q59 -37 131 -37q68 0 104 23q37 22 41 24q17 10 31 27q29 24 53 71q25 45 25 111q0 39 -16 82l-29 59l-41 43q-27 27 -72 50q-55 20 -100 20q-66 0 -125 -35q-62 -35 -94 -90q-38 -55 -38 -133z" />
<glyph unicode="&#xa5;" d="M35 1530l217 25l365 -793l368 793l215 -25l-194 -424h153v-184h-241l-121 -254h362v-186h-432v-750l-221 -23v773h-420v186h344l-118 254h-226v184h146z" />
<glyph unicode="&#xa6;" d="M525 -383v822h182v-822h-182zM525 641v822h182v-822h-182z" />
<glyph unicode="&#xa7;" d="M187 578q0 43 10 88q11 45 17 61q4 15 20 37l35 53l35 41l69 60l-55 61l-28 45l-27 58q-16 45 -16 106q0 94 52 184q54 84 148 127t184 43q92 0 164 -30q72 -33 123 -97q23 -28 41 -65q19 -39 41 -107l-201 -79q-37 137 -80 155q-45 17 -59.5 21t-34.5 4q-66 0 -111 -39 q-43 -31 -43 -92q0 -19 11 -45q8 -29 14 -39q6 -13 16 -27q19 -29 39 -43l70 -49l200 -127q110 -74 169 -170q57 -98 57 -197q0 -96 -58 -190q-45 -72 -133 -135l49 -51q19 -23 33 -48q8 -12 27 -53q11 -24 17 -52q6 -26 6 -57q0 -94 -54 -184q-57 -86 -145 -133 q-45 -21 -94 -31q-50 -12 -97 -12q-88 0 -155 30q-66 27 -95 56l-39 49l-22 33q-2 2 -26 57l-29 78l188 78l43 -95q12 -22 37 -45q14 -16 45 -26q29 -15 66 -15q53 0 102 41q47 39 47 99q0 26 -12 59q-15 31 -51 66q-19 21 -48 41q-14 10 -40 27l-197 123q-225 147 -225 352 zM408 594q0 -51 29 -88q14 -20 33 -39q16 -20 34 -37l68 -51l57 -33l68 -41q124 82 124 211q0 49 -26 88q-12 23 -29 41q-18 19 -39 35q-41 35 -116 78l-60 37l-20 12q-58 -37 -86 -86q-37 -55 -37 -127z" />
<glyph unicode="&#xa8;" d="M297 1341v289h254v-289h-254zM686 1341v289h248v-289h-248z" />
<glyph unicode="&#xa9;" d="M-4 688q0 119 45 232q45 110 135 205q95 90 208.5 137t236.5 47q119 0 229 -45q111 -45 201 -135q90 -92 139 -207q47 -117 47 -240q0 -121 -59.5 -264t-216.5 -250q-160 -106 -344 -106q-119 0 -236 47q-119 45 -207 137q-37 39 -69.5 88t-46.5 86q-17 35 -29 78 q-14 41 -21 67q-12 62 -12 123zM155 690q0 -141 78.5 -258.5t180.5 -162.5q49 -18 102 -31q54 -12 95 -12q139 0 259.5 78.5t163.5 187t43 192.5q0 142 -75 260q-78 119 -183 160q-53 21 -102 33q-51 10 -92 10q-80 0 -125 -14q-31 -6 -39 -8q-10 -4 -39 -19q-16 -6 -39 -20 q-22 -17 -35 -25q-41 -29 -90 -88q-24 -31 -41 -59q-19 -29 -33 -70q-29 -74 -29 -154zM238 678q0 55 4 78q5 22 21 63q20 70 57 115q35 49 82 84q94 66 213 66q57 0 82 -4q22 -7 63 -21q23 21 55 21l29 -5q66 -10 66 -96v-31v-14l-2 -10l4 -33l2 -51l-9 -45 q-18 -53 -84 -60q-36 0 -57 17q-10 14 -14 20q-10 17 -19 39l-22 58q-8 16 -25 28q-18 13 -59 17l-47 -4q-39 0 -72 -37q-29 -27 -53 -82q-17 -49 -17 -105q0 -98 54 -164q51 -65 123 -65q28 0 71 16l82 43l58 29q53 0 73 -18q13 -13 19 -23q4 -12 8 -37q0 -51 -55 -104 q-25 -23 -54 -37q-30 -17 -75 -33q-74 -22 -129 -22q-156 0 -265 122q-108 121 -108 285z" />
<glyph unicode="&#xaa;" d="M146 936q0 72 8 141q9 68 27 132q32 127 120 217q86 90 240 108l49 2q129 0 264 -73v55l209 20v-1177l-209 -27v86l-100 -53q-70 -29 -152 -29q-57 0 -151 27q-94 22 -170 117q-78 92 -108 213q-27 126 -27 241zM350 938q0 -135 43 -246q41 -110 117 -133q90 -22 119 -22 q57 0 109 22q49 21 116 64v631l-59 32l-70 35q-63 23 -121 23l-43 -2q-108 -15 -141 -95q-12 -30 -24 -63q-21 -55 -29 -96t-12 -72q-5 -33 -5 -78z" />
<glyph unicode="&#xab;" d="M248 453l223 471h206l-195 -471l195 -472h-205zM576 453l223 471h205l-194 -471l194 -472h-205z" />
<glyph unicode="&#xac;" d="M72 836q0 43 33 74q30 28 73 28h897q82 0 89 -63v-443q0 -53 -33 -79q-27 -31 -72 -31q-41 0 -74 31q-34 26 -34 79v301h-770q-57 0 -82 33q-27 31 -27 70z" />
<glyph unicode="&#xad;" d="M189 365v203h854v-203h-854z" />
<glyph unicode="&#xae;" d="M-4 688q0 119 45 232q45 110 135 205q95 90 208.5 137t236.5 47q119 0 229 -45q111 -45 201 -135q90 -92 139 -207q47 -117 47 -240q0 -121 -59.5 -264t-216.5 -250q-160 -106 -344 -106q-119 0 -236 47q-119 45 -207 137q-37 39 -69.5 88t-46.5 86q-17 35 -29 78 q-14 41 -21 67q-12 62 -12 123zM155 690q0 -141 78.5 -258.5t180.5 -162.5q49 -18 102 -31q54 -12 95 -12q139 0 259.5 78.5t163.5 187t43 192.5q0 142 -75 260q-78 119 -183 160q-53 21 -102 33q-51 10 -92 10q-80 0 -125 -14q-31 -6 -39 -8q-10 -4 -39 -19q-16 -6 -39 -20 q-22 -17 -35 -25q-41 -29 -90 -88q-24 -31 -41 -59q-19 -29 -33 -70q-29 -74 -29 -154zM285 420q2 -18 8 -31q4 -14 16 -30q33 -29 66 -29l47 -2h43l35 -2q45 0 75.5 6t45.5 14q39 29 39 82q-13 54 -51 66q-17 8 -46 8v107q17 -5 21 -11l45 -65l51 -84l47 -68q13 -12 29 -24 q14 -13 35 -21q18 -10 59 -10q103 0 113 82q-6 55 -29 71q-24 17 -59 23l-31 49l-49 76l-19 20q45 27 70 64q37 53 37 117q0 84 -57 151q-58 68 -156 84l-154 6l-151 -6q-29 -6 -51 -22q-25 -19 -25 -60q0 -59 43 -76q25 -10 53 -12v-391q-26 0 -47 -6q-20 -8 -33 -19 q-20 -30 -20 -57zM563 774h13q37 0 57 4q21 3 41 11q21 8 21 49q0 33 -27 45q-27 10 -92 10h-13v-119z" />
<glyph unicode="&#xaf;" d="M-30 1413v182h1294v-182h-1294z" />
<glyph unicode="&#xb0;" horiz-adv-x="819" d="M97 1215q0 123 88 217q45 43 102 67q55 23 119 23q127 0 217 -90q43 -43 68 -99q22 -57 22 -118q0 -129 -90 -219q-43 -43 -98 -66q-58 -25 -119 -25q-123 0 -219 91q-90 96 -90 219zM269 1215q0 -51 40 -94q41 -46 99 -46q49 0 92 41q43 39 43 99q0 51 -39 94 q-41 43 -100 43q-51 0 -92 -39q-43 -41 -43 -98z" />
<glyph unicode="&#xb1;" d="M125 -2v205h981v-205h-981zM125 674v200h389v390h213v-390h379v-200h-379v-389h-213v389h-389z" />
<glyph unicode="&#xb2;" d="M145 1180q60 139 115 211q66 80 160 123q49 20 98 30q50 11 113 11q119 0 223 -39q103 -41 154 -121q53 -76 53 -160q0 -41 -8 -78q-10 -36 -31 -73q-35 -78 -82 -129l-121 -140l-45 -47l-57 -58l-111 -108l-94 -96l-49 -52h614l-30 -196h-873v178l250 246l115 115 l115 119l20 20l35 39l74 86l45 76q20 41 20 76q0 28 -16 53q-4 8 -15 20q-12 13 -18 19q-8 6 -21 14q-14 6 -38 17q-27 8 -50 12q-22 4 -55 4l-67 -6q-25 -4 -70 -21q-47 -16 -88 -67q-21 -27 -41.5 -60.5t-59.5 -99.5z" />
<glyph unicode="&#xb3;" d="M137 1342l25 196h864l25 -178l-383 -274q84 -11 150 -39q94 -43 161.5 -129t67.5 -195l-4 -37q-12 -145 -142 -250q-114 -92 -268 -141q-106 -24 -209 -37q-102 -12 -237 -12l-19 192q148 0 287 21q139 18 246 76q105 57 125 153l4 39q0 62 -54 115q-55 51 -106 63 l-84 19l-53 4l-76 -6l-109 -10l-51 145l390 285h-550z" />
<glyph unicode="&#xb4;" d="M397 1266l289 481h297l-389 -481h-197z" />
<glyph unicode="&#xb5;" d="M35 -340l14 82l209 1014h15h-15l-20 -2q-41 0 -66.5 13.5t-40.5 37.5l-8 37q0 61 43 92q17 10 68 19q49 6 119 6l88 -4q34 0 47 -27q12 -16 12 -53l-117 -537q-2 -6 -8 -43q-8 -37 -8 -43q0 -37 22 -72q11 -16 34.5 -22t66.5 -6h41l57 12q21 4 37 11.5t45 25.5 q25 12 49 37q25 22 43 47q35 47 47 108l96 469q19 93 103 93q113 0 113 -84l-2 -23l-141 -674l-35 -6h16h27q43 0 66.5 -14t33.5 -41l6 -31q0 -74 -53 -97q-15 -6 -43 -10q-29 -6 -50 -6l-59 -2q-92 0 -123 12q-32 13 -32 64l6 35l12 35l12 22l48 -36q-31 -27 -56 -46 q-14 -10 -51 -34q-11 -6 -39 -21q-31 -15 -45 -19l-64 -20l-104 -12q-76 0 -148 40l-53 -284q-6 -58 -31 -99q-26 -43 -102 -43q-82 19 -82 99z" />
<glyph unicode="&#xb6;" d="M142 983q0 45 6 92q6 48 20 97q25 98 78 178q51 78 133 125.5t184 47.5h512v-198h-108v-1733h-221v1733h-51v-1733h-225l-1 961q-41 0 -78.5 11.5t-76.5 33.5q-74 49 -115 129t-53 191z" />
<glyph unicode="&#xb8;" d="M330 -606l115 -21l112 -22l95 -7q90 0 114 39l6 33q0 23 -2 37q-4 14 -24 27q-33 20 -103 20l-102 -2v293h149v-129q33 0 66 -2q31 -4 70 -13q36 -10 67 -28q31 -21 53 -58q45 -63 45 -137q0 -90 -63 -172q-66 -84 -248 -84q-74 0 -147.5 12.5t-202.5 49.5v164z" />
<glyph unicode="&#xb9;" d="M205 258l25 196h315v867l-258 -55l-51 186l448 103l74 -64v-1037h326l-25 -196h-854z" />
<glyph unicode="&#xba;" d="M140 938q0 96 32.5 280.5t255.5 282.5q101 35 187 35q90 0 192 -35q105 -43 178 -141q33 -45 54 -90q21 -47 31 -94l18 -129l4 -107q0 -96 -31 -280q-33 -185 -254 -285q-104 -35 -190 -35q-92 0 -189 35q-225 98 -255 281q-33 180 -33 282zM350 920q0 -285 99 -332 q119 -49 172 -49q55 0 139 35q84 32 102 161q19 127 19 216q0 63 -2 89.5t-14 71.5q-11 60 -52 123q-32 58 -84 78q-49 25 -112 25q-54 0 -150 -43q-80 -35 -98 -164q-19 -131 -19 -211z" />
<glyph unicode="&#xbb;" d="M234 -19l195 472l-195 471h202l230 -471l-230 -472h-202zM562 -19l197 472l-197 471h202l230 -471l-230 -472h-202z" />
<glyph unicode="&#xbc;" d="M-39 195l1241 505l72 -184l-1243 -514zM60 522l30 188h267v619l-215 -41l-64 177l414 90l76 -64v-781h268l-25 -188h-751zM305 -618l228 801l194 -25l-163 -588h262v443l208 22v-465h123l-30 -188h-93v-215l-208 -15v230h-521z" />
<glyph unicode="&#xbd;" d="M-39 195l1241 505l72 -184l-1243 -514zM60 522l30 188h267v619l-215 -41l-64 177l414 90l76 -64v-781h268l-25 -188h-751zM312 -166q53 153 108 219q53 66 141 99t185 33q53 0 96 -7q43 -6 94 -24q86 -33 141 -103q52 -74 52 -139q0 -144 -224 -340q-147 -132 -249 -230 h485l-31 -188h-760v154l93 98l108 106l121 109l84 78l37 32l63 64q35 41 47 63q7 13 11 43q0 23 -17 41q-6 9 -20 19q-17 8 -39 16q-25 8 -45.5 12.5t-48.5 4.5q-41 0 -88 -15q-50 -14 -70 -39l-45 -61l-43 -74z" />
<glyph unicode="&#xbe;" d="M-39 195l1241 506l72 -185l-1243 -514zM123 1362l31 188h754l24 -157l-252 -178h-37q-6 0 -14 -2q16 -4 29 -6q10 -3 27.5 -9t47 -18t52 -25.5t47.5 -33.5q39 -39 66 -93q26 -53 26 -110q0 -101 -77 -191q-81 -90 -243 -145q-161 -57 -428 -57l-32 190q231 0 381 33 q147 33 180 133l8 43q-4 37 -37 61q-39 33 -88 41q-53 13 -106 13l-170 -9l-50 123l291 209h-430zM305 -618l228 801l194 -25l-164 -588h263v443l208 22v-465h123l-30 -188h-93v-215l-208 -15v230h-521z" />
<glyph unicode="&#xbf;" d="M107 180q0 132 69 238q70 107 150 178l106 92l47 52q21 24 27 55q4 31 8 67q4 37 4 93h232l4 -50v-24q0 -100 -27 -172q-26 -74 -90 -131l-45 -39l-41 -37l-33 -27l-51 -49l-41 -41l-33 -43q-4 -4 -12 -18q-22 -37 -28 -49q-19 -37 -19 -103q0 -35 23 -102 q20 -68 90 -107q67 -41 155 -41q45 0 115 16q55 17 107 68q28 27 46.5 51.5t37.5 65.5q16 39 30 76q13 35 31 86l201 -39q-35 -213 -99 -324q-63 -113 -166 -145q-188 -61 -292 -61q-103 0 -199 32q-94 26 -166 94q-74 66 -106 158q-35 92 -35 180zM493 1098v426h285v-426 h-285z" />
<glyph unicode="&#xc0;" d="M51 -269l428 1793l252 16l451 -1809l-223 -22l-107 480h-479l-109 -480zM252 2095h299l289 -481h-202zM418 400h384l-189 784z" />
<glyph unicode="&#xc1;" d="M51 -269l428 1793l252 16l451 -1809l-223 -22l-107 480h-479l-109 -480zM398 1614l288 481h298l-390 -481h-196zM418 400h384l-189 784z" />
<glyph unicode="&#xc2;" d="M51 -269l428 1793l252 16l451 -1809l-223 -22l-107 480h-479l-109 -480zM221 1614l269 481h254l268 -481h-196l-199 270l-201 -270h-195zM418 400h384l-189 784z" />
<glyph unicode="&#xc3;" d="M51 -269l428 1793l252 16l451 -1809l-223 -22l-107 480h-479l-109 -480zM230 1686q22 86 47 137q22 51 53 82q31 29 72 45q39 14 88 14q32 0 69 -6q35 -6 78 -22q74 -23 107 -23q32 0 55 19q20 16 41 63h168q-20 -76 -36.5 -115t-39.5 -67q-37 -58 -82 -82 q-47 -25 -100 -25l-58 6l-77 21l-78 22l-53 4q-48 0 -93 -73h-161zM418 400h384l-189 784z" />
<glyph unicode="&#xc4;" d="M51 -269l428 1793l252 16l451 -1809l-223 -22l-107 480h-479l-109 -480zM297 1690v289h254v-289h-254zM418 400h383l-188 784zM686 1690v289h248v-289h-248z" />
<glyph unicode="&#xc5;" d="M51 -269l428 1793l252 16l451 -1809l-223 -22l-107 480h-479l-109 -480zM289 1864q0 84 43 162q21 39 50.5 68.5t70.5 56.5q80 45 162 45q88 0 168 -45q77 -45 120 -123q43 -80 43 -162q0 -139 -96 -233q-98 -95 -233 -95q-90 0 -168 45q-35 21 -62 52q-28 28 -55 69 q-20 37 -31.5 78t-11.5 82zM418 400h383l-188 784zM479 1864q0 -66 43 -100q41 -37 101 -37q55 0 96 37q39 34 39 100q0 65 -41 102t-100 37q-56 0 -97 -37t-41 -102z" />
<glyph unicode="&#xc6;" d="M-15 -269l501 1793h655l23 -211h-402v-522h293l-23 -209h-270v-644h428l-26 -209h-628v460h-220l-129 -480zM373 400h163v661z" />
<glyph unicode="&#xc7;" d="M131 678v92t9 115q0 57 8 106l14 80l14 62q2 16 8.5 36.5t20.5 57.5t33 68q16 30 41 61q22 31 44.5 52.5t57.5 45.5q55 41 125 63.5t150 22.5q141 0 266 -71q57 -35 107.5 -101.5t95.5 -167.5l-205 -104q-49 123 -109 178q-59 53 -141 53q-49 0 -113 -20 q-63 -21 -112 -113q-52 -94 -63 -188l-15 -156l-4 -141v-80v-82l2 -135q0 -27 4 -59q2 -33 13 -115q9 -84 59 -176q49 -95 112 -115q33 -9 63.5 -15t49.5 -6q84 0 158 64q71 63 141 201l184 -103q-47 -98 -84 -156q-39 -59 -80 -94q-75 -64 -143 -94q-66 -27 -145 -27 l-52 -4q-61 0 -106 14l-60 19l-55 26q-14 7 -28 17q-17 10 -31 22q-17 11 -82 72q-33 33 -53 74q-23 39 -39 96l-37 177q-12 73 -12 157l-7 183zM385 -606l115 -21q14 -2 20 -2q7 0 25 -8l64 -12l96 -7h22q80 0 86 19q6 16 11 28q2 11 4 27q0 19 -9 37q-6 8 -30 31 q-23 14 -92 14l-99 -2v293h149v-129q33 0 66 -2q31 -4 68.5 -13.5t68.5 -27.5q31 -21 53 -58q46 -63 46 -137q0 -86 -51 -155q-43 -50 -105 -74q-63 -27 -158 -27q-73 0 -147 12.5t-203 49.5v164z" />
<glyph unicode="&#xc8;" d="M170 -271v1795h953l28 -211h-760v-522h576l-23 -209h-553v-644h816l-23 -209h-1014zM301 2095h297l289 -481h-201z" />
<glyph unicode="&#xc9;" d="M170 -271v1795h953l28 -211h-760v-522h576l-23 -209h-553v-644h816l-23 -209h-1014zM445 1614l288 481h299l-389 -481h-198z" />
<glyph unicode="&#xca;" d="M170 -271v1795h953l28 -211h-760v-522h576l-23 -209h-553v-644h816l-23 -209h-1014zM269 1614l268 481h254l268 -481h-194l-201 270l-199 -270h-196z" />
<glyph unicode="&#xcb;" d="M170 -271v1795h953l28 -211h-760v-522h576l-23 -209h-553v-644h816l-23 -209h-1014zM346 1690v289h252v-289h-252zM733 1690v289h250v-289h-250z" />
<glyph unicode="&#xcc;" d="M252 2095h299l289 -481h-203zM281 -271l22 209h203v1375h-225l22 211h648l-27 -211h-197v-1375h224l-27 -209h-643z" />
<glyph unicode="&#xcd;" d="M281 -271l22 209h203v1375h-225l22 211h648l-27 -211h-197v-1375h224l-27 -209h-643zM398 1614l288 481h297l-389 -481h-196z" />
<glyph unicode="&#xce;" d="M221 1614l269 481h254l268 -481h-197l-198 270l-201 -270h-195zM281 -271l22 209h203v1375h-225l22 211h648l-27 -211h-197v-1375h224l-27 -209h-643z" />
<glyph unicode="&#xcf;" d="M281 -271l22 209h203v1375h-225l22 211h648l-27 -211h-197v-1375h224l-27 -209h-643zM297 1690v289h254v-289h-254zM686 1690v289h248v-289h-248z" />
<glyph unicode="&#xd0;" d="M-31 570v186h227v557h-175l22 211h445q223 0 354 -66q129 -65 190 -190q31 -64 50 -123q18 -61 33 -172q12 -113 12 -344q0 -233 -18 -383q-19 -152 -72 -242q-54 -92 -107 -137q-55 -47 -160 -93q-106 -45 -329 -45h-398l-22 209h175v632h-227zM418 -62h21l147 6l57 14 q17 2 29 7q25 10 41 16q37 17 76 58q20 19 32 37q13 16 32.5 53t35.5 129q14 92 14 232v78l-2 63l2 57v72q0 139 -16 250q-16 108 -68 170q-45 59 -108 88q-27 15 -53 23q-29 8 -68 14l-88 4l-84 5v-558h326v-186h-326v-632z" />
<glyph unicode="&#xd1;" d="M133 -291v1813l289 18l451 -1222v1204l223 18v-1809l-211 -22l-530 1397v-1375zM230 1686q22 86 47 137q22 51 53 82q31 29 72 45q39 14 88 14q32 0 69 -6q35 -6 78 -22q74 -23 107 -23q32 0 55 19q20 16 41 63h168q-20 -76 -36.5 -115t-39.5 -67q-37 -58 -82 -82 q-47 -25 -100 -25l-58 6l-77 21l-78 22l-53 4q-48 0 -93 -73h-161z" />
<glyph unicode="&#xd2;" d="M90 627q0 229 21 391q20 160 74 256q22 41 49 80q26 37 47 59q53 50 131 88q76 37 205 37q121 0 204 -43q74 -35 136 -94q59 -63 86 -117q24 -53 45 -125q2 -6 12 -51t18 -92l13 -115l10 -147l2 -152l-6 -196q0 -51 -8 -101l-13 -79l-12 -76q-6 -53 -35 -121 q-26 -72 -82 -146q-53 -66 -155 -117q-105 -53 -215 -53q-121 0 -224 51q-131 68 -192 187q-64 117 -88 285q-10 76 -16 178q-7 100 -7 213zM253 2095h298l289 -481h-203zM320 629l4 -156l2 -112l16 -133q0 -23 4 -35l21 -70q14 -39 45 -82q29 -45 80 -79t125 -34 q73 0 145 45q70 46 94 128q15 59 23 92t12 53l10 109l10 131l4 127l-8 133l-6 153l-2 62q0 20 -14 78q-10 59 -10 67q-2 6 -10 23l-35 80q-21 38 -76 79q-64 39 -139 39q-70 0 -129 -39q-54 -30 -90 -94q-11 -20 -21 -45q-16 -41 -24 -80l-18 -96l-5 -74l-4 -135z" />
<glyph unicode="&#xd3;" d="M90 627q0 229 21 391q20 160 74 256q22 41 49 80q26 37 47 59q53 50 131 88q76 37 205 37q121 0 204 -43q74 -35 136 -94q59 -63 86 -117q24 -53 45 -125q2 -6 12 -51t18 -92l13 -115l10 -147l2 -152l-6 -196q0 -51 -8 -101l-13 -79l-12 -76q-6 -53 -35 -121 q-26 -72 -82 -146q-53 -66 -155 -117q-105 -53 -215 -53q-121 0 -224 51q-131 68 -192 187q-64 117 -88 285q-10 76 -16 178q-7 100 -7 213zM320 629l4 -156l2 -112l16 -133q0 -23 4 -35l21 -70q14 -39 45 -82q29 -45 80 -79t125 -34q73 0 145 45q70 46 94 128q15 59 23 92 t12 53l10 109l10 131l4 127l-8 133l-6 153l-2 62q0 20 -14 78q-10 59 -10 67q-2 6 -10 23l-35 80q-21 38 -76 79q-64 39 -139 39q-70 0 -129 -39q-54 -30 -90 -94q-11 -20 -21 -45q-16 -41 -24 -80l-18 -96l-5 -74l-4 -135zM398 1614l288 481h297l-389 -481h-196z" />
<glyph unicode="&#xd4;" d="M90 627q0 229 21 391q20 160 74 256q22 41 49 80q26 37 47 59q53 50 131 88q76 37 205 37q121 0 204 -43q74 -35 136 -94q59 -63 86 -117q24 -53 45 -125q2 -6 12 -51t18 -92l13 -115l10 -147l2 -152l-6 -196q0 -51 -8 -101l-13 -79l-12 -76q-6 -53 -35 -121 q-26 -72 -82 -146q-53 -66 -155 -117q-105 -53 -215 -53q-121 0 -224 51q-131 68 -192 187q-64 117 -88 285q-10 76 -16 178q-7 100 -7 213zM222 1614l268 481h254l267 -481h-196l-198 270l-201 -270h-194zM320 629l4 -156l2 -112l16 -133q0 -23 4 -35l21 -70q14 -39 45 -82 q29 -45 80 -79t125 -34q73 0 145 45q70 46 94 128q15 59 23 92t12 53l10 109l10 131l4 127l-8 133l-6 153l-2 62q0 20 -14 78q-10 59 -10 67q-2 6 -10 23l-35 80q-21 38 -76 79q-64 39 -139 39q-70 0 -129 -39q-54 -30 -90 -94q-11 -20 -21 -45q-16 -41 -24 -80l-18 -96 l-5 -74l-4 -135z" />
<glyph unicode="&#xd5;" d="M90 627q0 229 21 391q20 160 74 256q22 41 49 80q26 37 47 59q53 50 131 88q76 37 205 37q121 0 204 -43q74 -35 136 -94q59 -63 86 -117q24 -53 45 -125q2 -6 12 -51t18 -92l13 -115l10 -147l2 -152l-6 -196q0 -51 -8 -101l-13 -79l-12 -76q-6 -53 -35 -121 q-26 -72 -82 -146q-53 -66 -155 -117q-105 -53 -215 -53q-121 0 -224 51q-131 68 -192 187q-64 117 -88 285q-10 76 -16 178q-7 100 -7 213zM230 1686q23 86 47 137q22 51 53 82q31 29 72 45q39 14 88 14q32 0 69 -6q35 -6 78 -22q74 -23 107 -23q32 0 55 19q20 16 41 63 h167q-20 -76 -36 -115t-39 -67q-37 -58 -82 -82q-47 -25 -100 -25l-58 6l-77 21l-78 22l-53 4q-48 0 -93 -73h-161zM320 629l4 -156l2 -112l16 -133q0 -23 4 -35l21 -70q14 -39 45 -82q29 -45 80 -79t125 -34q73 0 145 45q70 46 94 128q15 59 23 92t12 53l10 109l10 131 l4 127l-8 133l-6 153l-2 62q0 20 -14 78q-10 59 -10 67q-2 6 -10 23l-35 80q-21 38 -76 79q-64 39 -139 39q-70 0 -129 -39q-54 -30 -90 -94q-11 -20 -21 -45q-16 -41 -24 -80l-18 -96l-5 -74l-4 -135z" />
<glyph unicode="&#xd6;" d="M90 627q0 229 21 391q20 160 74 256q22 41 49 80q26 37 47 59q53 50 131 88q76 37 205 37q121 0 204 -43q74 -35 136 -94q59 -63 86 -117q24 -53 45 -125q2 -6 12 -51t18 -92l13 -115l10 -147l2 -152l-6 -196q0 -51 -8 -101l-13 -79l-12 -76q-6 -53 -35 -121 q-26 -72 -82 -146q-53 -66 -155 -117q-105 -53 -215 -53q-121 0 -224 51q-131 68 -192 187q-64 117 -88 285q-10 76 -16 178q-7 100 -7 213zM298 1690v289h253v-289h-253zM320 629l4 -156l2 -112l16 -133q0 -23 4 -35l21 -70q14 -39 45 -82q29 -45 80 -79t125 -34 q73 0 145 45q70 46 94 128q15 59 23 92t12 53l10 109l11 131l4 127l-8 133l-7 153l-2 62q0 20 -14 78q-10 59 -10 67q-2 6 -10 23l-35 80q-21 38 -76 79q-64 39 -139 39q-70 0 -129 -39q-54 -30 -90 -94q-11 -20 -21 -45q-16 -41 -24 -80l-18 -96l-5 -74l-4 -135zM686 1690 v289h248v-289h-248z" />
<glyph unicode="&#xd7;" d="M114 983l152 146l349 -351l317 318l145 -152l-315 -313l350 -348l-145 -152l-354 351l-312 -312l-146 148l310 313z" />
<glyph unicode="&#xd8;" d="M-70 -287l221 349q-6 18 -12 43q-6 22 -16 82l-19 133l-6 155l-6 238l6 184q0 35 8 88q6 52 19 121q12 70 35 125q20 53 59 107q68 102 174 153q56 25 107 37q49 12 111 12l49 -4q26 0 110 -18q84 -21 205 -137l98 157h211l-207 -331q9 -31 21 -78q10 -47 16 -92l15 -140 l6 -112l2 -115l6 -133l-6 -191q0 -37 -6 -86q-8 -49 -21.5 -118.5t-36.5 -120.5q-22 -52 -61 -105q-66 -96 -174 -150q-109 -53 -225 -53q-39 0 -60 2q-20 2 -71 14q-76 19 -140 66q-45 31 -94 88l-104 -170h-214zM319 690l2 -145l7 -141l4 -47l514 817q-16 26 -35 53 q-18 27 -30 39q-31 33 -86.5 47t-88.5 14q-75 0 -135 -45q-59 -47 -94 -137q-14 -31 -24.5 -82t-16.5 -108q-9 -60 -13 -125.5t-4 -139.5zM383 94q60 -123 158 -156q29 -6 41 -8q10 -2 37 -2q80 0 139 47q68 46 88 101q8 18 18.5 47t12.5 37l14 66l12 88l7 90l6 194l-6 223 l-9 105z" />
<glyph unicode="&#xd9;" d="M150 252v1270l221 18v-1321q0 -147 53 -219q51 -74 193 -74q137 0 192 76q53 76 53 217l1 1303l221 18v-1288q0 -172 -39 -287q-41 -115 -125 -168q-39 -25 -72 -39q-35 -17 -80 -27q-47 -12 -76 -14q-30 -4 -75 -4q-172 0 -277 66q-104 65 -151 188q-39 117 -39 285z M253 2095h298l289 -481h-203z" />
<glyph unicode="&#xda;" d="M150 252v1270l221 18v-1321q0 -147 53 -219q51 -74 193 -74q137 0 192 76q53 76 53 217l1 1303l221 18v-1288q0 -172 -39 -287q-41 -115 -125 -168q-39 -25 -72 -39q-35 -17 -80 -27q-47 -12 -76 -14q-30 -4 -75 -4q-172 0 -277 66q-104 65 -151 188q-39 117 -39 285z M398 1614l288 481h298l-390 -481h-196z" />
<glyph unicode="&#xdb;" d="M150 252v1270l221 18v-1321q0 -147 53 -219q51 -74 193 -74q137 0 192 76q53 76 53 217l1 1303l221 18v-1288q0 -172 -39 -287q-41 -115 -125 -168q-39 -25 -72 -39q-35 -17 -80 -27q-47 -12 -76 -14q-30 -4 -75 -4q-172 0 -277 66q-104 65 -151 188q-39 117 -39 285z M222 1614l268 481h254l268 -481h-196l-199 270l-201 -270h-194z" />
<glyph unicode="&#xdc;" d="M150 252v1270l221 18v-1321q0 -147 53 -219q51 -74 193 -74q137 0 192 76q53 76 53 217l1 1303l221 18v-1288q0 -172 -39 -287q-41 -115 -125 -168q-39 -25 -72 -39q-35 -17 -80 -27q-47 -12 -76 -14q-30 -4 -75 -4q-172 0 -277 66q-104 65 -151 188q-39 117 -39 285z M298 1690v289h253v-289h-253zM686 1690v289h248v-289h-248z" />
<glyph unicode="&#xdd;" d="M35 1520l217 20l365 -778l368 778l215 -20l-473 -1012v-777l-221 -22v791zM398 1614l288 481h297l-389 -481h-196z" />
<glyph unicode="&#xde;" d="M185 -291v1813l223 18v-379h41h88q131 0 217 -14q95 -12 172 -57q76 -39 136 -113q53 -78 79 -160q27 -84 27 -180q0 -59 -6 -102q-6 -45 -25 -94q-27 -91 -96 -168q-29 -35 -64 -62q-37 -26 -76 -43q-63 -22 -166 -43q-47 -6 -96 -10q-51 -4 -108 -4l-70 2h-53v-382z M408 324h61h45l39 -2q119 0 207 20q59 19 98 64t59.5 105.5t20.5 127.5q0 60 -18 117q-21 57 -53 98q-33 39 -97 68q-65 26 -231 26h-90h-35z" />
<glyph unicode="&#xdf;" d="M137 -291v1274q0 107 7 174q0 33 10 68q8 33 26 78q17 43 37 74q21 28 56 57q57 51 141 80q82 28 176 28q59 0 107 -10q49 -6 139 -45q92 -33 160 -141q30 -51 47 -111q16 -59 16 -131l-2 -39l-12 -94q-17 -78 -70 -135q-18 -19 -37 -35q-35 -31 -65 -51l-31 -17 q106 -34 180 -112q17 -21 35 -45q16 -25 27 -47l26 -72l19 -84q10 -61 10 -115v-47q0 -26 -4 -51q0 -27 -6 -55.5t-13 -57.5q-6 -28 -20 -66q-16 -39 -41 -78q-47 -81 -119 -120q-28 -17 -57 -33q-21 -10 -55.5 -23.5t-88.5 -13.5h-28q-62 0 -135 23q-74 20 -170 69l88 187 q147 -70 217 -70q28 0 104 27q74 24 103 199l6 102q0 191 -74 252t-111 66l-90 16q-18 2 -45 4q-26 2 -55 2v213l90 16q10 0 53 19q41 16 72 51q31 29 55 88q23 60 23 119q0 100 -47 155.5t-94 69.5q-23 6 -52 12q-28 7 -55 7q-68 0 -158 -45q-73 -39 -73 -215v-1349z" />
<glyph unicode="&#xe0;" d="M109 453q0 272 98 491q96 220 342 246l53 2q50 0 88 -6q39 -6 86 -25l86 -43l35 -20v76l221 18v-1461l-221 -22v108q-57 -40 -100 -63q-45 -23 -84 -33q-41 -10 -92 -10q-78 0 -178 35q-101 33 -187 149q-86 118 -116.5 265t-30.5 293zM330 457q0 -131 17 -229 q14 -101 63 -179q47 -80 115 -102q79 -23 120 -23q52 0 111 27q45 18 141 86v828l-137 86q-57 28 -133 28l-62 -6q-133 -14 -184 -166q-51 -151 -51 -350zM336 1747h299l289 -481h-203z" />
<glyph unicode="&#xe1;" d="M109 453q0 272 98 491q96 220 342 246l53 2q50 0 88 -6q39 -6 86 -25l86 -43l35 -20v76l221 18v-1461l-221 -22v108q-57 -40 -100 -63q-45 -23 -84 -33q-41 -10 -92 -10q-78 0 -178 35q-101 33 -187 149q-86 118 -116.5 265t-30.5 293zM330 457q0 -131 17 -229 q14 -101 63 -179q47 -80 115 -102q79 -23 120 -23q52 0 111 27q45 18 141 86v828l-137 86q-57 28 -133 28l-62 -6q-133 -14 -184 -166q-51 -151 -51 -350zM482 1266l288 481h297l-389 -481h-196z" />
<glyph unicode="&#xe2;" d="M109 453q0 272 98 491q96 220 342 246l53 2q50 0 88 -6q39 -6 86 -25l86 -43l35 -20v76l221 18v-1461l-221 -22v108q-57 -40 -100 -63q-45 -23 -84 -33q-41 -10 -92 -10q-78 0 -178 35q-101 33 -187 149q-86 118 -116.5 265t-30.5 293zM306 1266l268 481h254l268 -481 h-197l-198 270l-201 -270h-194zM330 457q0 -131 17 -229q14 -101 63 -179q47 -80 115 -102q79 -23 120 -23q52 0 111 27q45 18 141 86v828l-137 86q-57 28 -133 28l-62 -6q-133 -14 -184 -166q-51 -151 -51 -350z" />
<glyph unicode="&#xe3;" d="M109 453q0 272 98 491q96 220 342 246l53 2q50 0 88 -6q39 -6 86 -25l86 -43l35 -20v76l221 18v-1461l-221 -22v108q-57 -40 -100 -63q-45 -23 -84 -33q-41 -10 -92 -10q-78 0 -178 35q-101 33 -187 149q-86 118 -116.5 265t-30.5 293zM312 1338q23 82 47 133 q22 51 53 82q61 63 164 63l73 -6q19 -2 41 -8q21 -8 50 -21q49 -16 88 -16q32 0 55 18q20 17 41 64h168q-21 -78 -35 -113q-16 -37 -41 -74q-37 -55 -82 -79q-47 -25 -102 -25l-56 8l-77 21l-78 22l-53 4q-48 0 -93 -73h-163zM330 457q0 -131 17 -229q14 -101 63 -179 q47 -80 115 -102q79 -23 120 -23q52 0 111 27q45 18 141 86v828l-137 86q-57 28 -133 28l-62 -6q-133 -14 -184 -166q-51 -151 -51 -350z" />
<glyph unicode="&#xe4;" d="M109 453q0 272 98 491q96 220 342 246l53 2q50 0 88 -6q39 -6 86 -25l86 -43l35 -20v76l221 18v-1461l-221 -22v108q-57 -40 -100 -63q-45 -23 -84 -33q-41 -10 -92 -10q-78 0 -178 35q-101 33 -187 149q-86 118 -116.5 265t-30.5 293zM330 457q0 -131 17 -229 q14 -101 63 -179q47 -80 115 -102q79 -23 120 -23q52 0 111 27q45 18 141 86v828l-137 86q-57 28 -133 28l-62 -6q-133 -14 -184 -166q-51 -151 -51 -350zM381 1341v289h254v-289h-254zM770 1341v289h248v-289h-248z" />
<glyph unicode="&#xe5;" d="M109 453q0 272 98 491q96 220 342 246l53 2q50 0 88 -6q39 -6 86 -25l86 -43l35 -20v76l221 18v-1461l-221 -22v108q-57 -40 -100 -63q-45 -23 -84 -33q-41 -10 -92 -10q-78 0 -178 35q-101 33 -187 149q-86 118 -116.5 265t-30.5 293zM330 457q0 -131 17 -229 q14 -101 63 -179q47 -80 115 -102q79 -23 120 -23q52 0 111 27q45 18 141 86v828l-137 86q-57 28 -133 28l-62 -6q-133 -14 -184 -166q-51 -151 -51 -350zM361 1516q0 84 45 164q43 79 123 125q77 43 161 43q86 0 164 -43q68 -37 119 -119q45 -78 45 -168q0 -139 -94 -234 q-94 -94 -232 -94q-135 0 -235 94q-96 101 -96 232zM551 1514q0 -66 41 -101q41 -34 98 -34q54 0 99 35.5t45 103.5q0 39 -21 78q-22 28 -53 45q-33 14 -70 14q-57 0 -98 -37t-41 -104z" />
<glyph unicode="&#xe6;" d="M-15 453q0 119 4 164q2 45 17 164q13 118 78 251q66 132 201 158l41 2q65 0 125 -33l39 -26v41l209 20v-71l47 34q67 37 133 37q74 0 162 -53q86 -55 123 -145q10 -27 26 -76q8 -25 21 -66q2 -12 8 -43q4 -30 12 -100l8 -234v-55h-542v-8l2 -45l2 -64l2 -71q0 -25 6 -51 q4 -27 11 -52q3 -30 14.5 -61t29.5 -66q31 -47 80 -70l45 -8q92 0 178 248l170 -94q-22 -78 -47 -133q-24 -58 -53 -101q-53 -88 -129 -110q-78 -23 -123 -23q-102 0 -190 64v-46l-205 -22v59q-68 -59 -146 -59q-55 0 -137 41q-84 39 -135 162q-53 121 -73 260 q-6 66 -10 134.5t-4 146.5zM205 371q0 -154 27 -281q10 -57 24 -90q15 -35 37 -49q43 -27 57 -27q27 0 64 31q35 28 59 72v846q-20 28 -34 47q-15 16 -31 31q-29 30 -66 30q-14 0 -43 -12q-18 -6 -41 -74q-8 -26 -18 -69q-12 -45 -14 -58q-11 -51 -11 -92l-4 -115l-4 -104z M701 635h313q0 57 -16 135q-13 95 -52 154q-30 53 -86 53q-61 0 -94 -53q-16 -33 -28.5 -62.5t-15.5 -56.5l-17 -119z" />
<glyph unicode="&#xe7;" d="M133 453v115q7 51 9 75q10 103 38 193q29 88 80 158q45 59 111 108q33 23 68 41q34 16 75 27q86 20 144 20q157 0 276 -82q113 -71 195 -239l-178 -129q-35 69 -68 116q-35 45 -66 70q-63 51 -151 51q-45 0 -135 -20q-82 -15 -127 -156q-45 -143 -45 -348l2 -82v-31 t8 -61l6 -68q4 -24 10 -45.5t17 -48.5q20 -59 67 -113q43 -53 86 -62l70 -14l45 -2q84 0 147 51q58 44 144 179l172 -107q-53 -113 -123 -189q-59 -69 -154 -110q-43 -16 -92 -26q-51 -10 -104 -10q-88 0 -156 24q-29 8 -49 16q-33 15 -84 49q-27 17 -53.5 44.5t-53.5 62.5 q-75 100 -98 205l-24 172zM330 -606l115 -21l112 -22l95 -7q90 0 114 39l6 33q0 23 -2 37q-4 14 -24 27q-33 20 -103 20l-102 -2v293h149v-129q33 0 66 -2q31 -4 70 -13q36 -10 67 -28q31 -21 53 -58q45 -63 45 -137q0 -90 -63 -172q-66 -84 -248 -84q-74 0 -147.5 12.5 t-202.5 49.5v164z" />
<glyph unicode="&#xe8;" d="M94 445l5 155q0 178 61 305q33 66 74 113q39 45 100 86q123 88 287 88q88 0 178 -31q141 -57 217 -165q35 -54 59 -111q23 -59 36 -125q12 -65 18 -147t6 -191h-819l12 -145q0 -70 31 -156q14 -41 30 -70q15 -28 41 -53q49 -49 127 -64l86 -8q97 0 166 51q37 27 72 70 q33 43 78 123l178 -92q-47 -99 -96 -164q-50 -68 -109 -113q-117 -88 -287 -88h-30l-105 8q-78 0 -186 82q-94 70 -146 174q-22 50 -38 99q-17 47 -25 88l-16 148zM252 1747h299l289 -481h-202zM324 635h586q-22 154 -84 248q-64 94 -209 94q-146 0 -207 -96 q-64 -98 -86 -246z" />
<glyph unicode="&#xe9;" d="M94 445l5 155q0 178 61 305q33 66 74 113q39 45 100 86q123 88 287 88q88 0 178 -31q141 -57 217 -165q35 -54 59 -111q23 -59 36 -125q12 -65 18 -147t6 -191h-819l12 -145q0 -70 31 -156q14 -41 30 -70q15 -28 41 -53q49 -49 127 -64l86 -8q97 0 166 51q37 27 72 70 q33 43 78 123l178 -92q-47 -99 -96 -164q-50 -68 -109 -113q-117 -88 -287 -88h-30l-105 8q-78 0 -186 82q-94 70 -146 174q-22 50 -38 99q-17 47 -25 88l-16 148zM324 635h586q-22 154 -84 248q-64 94 -209 94q-146 0 -207 -96q-64 -98 -86 -246zM398 1266l288 481h298 l-390 -481h-196z" />
<glyph unicode="&#xea;" d="M94 445l5 155q0 178 61 305q33 66 74 113q39 45 100 86q123 88 287 88q88 0 178 -31q141 -57 217 -165q35 -54 59 -111q23 -59 36 -125q12 -65 18 -147t6 -191h-819l12 -145q0 -70 31 -156q14 -41 30 -70q15 -28 41 -53q49 -49 127 -64l86 -8q97 0 166 51q37 27 72 70 q33 43 78 123l178 -92q-47 -99 -96 -164q-50 -68 -109 -113q-117 -88 -287 -88h-30l-105 8q-78 0 -186 82q-94 70 -146 174q-22 50 -38 99q-17 47 -25 88l-16 148zM221 1266l269 481h254l268 -481h-196l-199 270l-201 -270h-195zM324 635h586q-22 154 -84 248 q-64 94 -209 94q-146 0 -207 -96q-64 -98 -86 -246z" />
<glyph unicode="&#xeb;" d="M94 445l5 155q0 178 61 305q33 66 74 113q39 45 100 86q123 88 287 88q88 0 178 -31q141 -57 217 -165q35 -54 59 -111q23 -59 35 -125q13 -65 19 -147t6 -191h-819l12 -145q0 -70 31 -156q14 -41 30 -70q15 -28 41 -53q49 -49 127 -64l86 -8q97 0 166 51q37 27 72 70 q33 43 78 123l178 -92q-47 -99 -96 -164q-50 -68 -109 -113q-117 -88 -287 -88h-30l-105 8q-78 0 -186 82q-94 70 -146 174q-22 50 -38 99q-17 47 -25 88l-16 148zM297 1341v289h254v-289h-254zM324 635h586q-23 154 -84 248q-64 94 -209 94q-146 0 -207 -96 q-64 -98 -86 -246zM686 1341v289h248v-289h-248z" />
<glyph unicode="&#xec;" d="M221 1747h297l289 -481h-201zM297 -271l29 213h203v1019h-232l29 215h426v-1234h231l-28 -213h-658z" />
<glyph unicode="&#xed;" d="M297 -271l29 213h203v1019h-232l29 215h426v-1234h231l-28 -213h-658zM365 1266l289 481h299l-390 -481h-198z" />
<glyph unicode="&#xee;" d="M189 1266l268 481h254l268 -481h-194l-201 270l-199 -270h-196zM297 -271l29 213h203v1019h-232l29 215h426v-1234h231l-28 -213h-658z" />
<glyph unicode="&#xef;" d="M266 1341v289h252v-289h-252zM297 -271l29 213h203v1019h-232l29 215h426v-1234h231l-28 -213h-658zM654 1341v289h249v-289h-249z" />
<glyph unicode="&#xf0;" d="M90 455q0 125 27 278q25 152 121 279t270 172q27 0 39 4l55 4q54 0 76 -2q21 -4 60 -14l-15 20l-51 66l-305 -107l-84 148l231 78l-147 86l14 57l266 -2q21 -10 45 -25q25 -16 50 -37l295 93l86 -140l-230 -84q41 -43 78 -108q47 -84 78 -168q12 -37 26 -82 q13 -47 19 -76l19 -98l16 -139q12 -103 12 -228q0 -299 -115 -504q-121 -213 -409 -213q-150 0 -279 84t-188 240q-60 154 -60 418zM314 424q0 -160 43 -289q43 -131 114 -169q84 -38 148 -38q61 0 119 28q77 31 114 114q37 80 54 184q8 51 12 98.5t4 100.5q0 96 -8 172 q-10 74 -23 117q-12 41 -37 92q-39 86 -104 112q-72 33 -133 33q-66 0 -121 -26q-57 -29 -78 -60q-22 -33 -43 -65l-25 -64l-17 -57q-5 -15 -5 -33v-31l-10 -121z" />
<glyph unicode="&#xf1;" d="M157 -291v1465l222 18v-145q19 14 51 39q33 22 84 55q105 55 209 55l37 -2q102 0 172 -41q68 -41 123 -157q22 -56 34.5 -138t12.5 -194v-933l-217 -22v904q0 116 -10 192t-56 129q-45 51 -143 51q-39 0 -88 -16q-27 -10 -43 -18q-18 -9 -35 -23q-41 -25 -67 -53l-41 -45 l-23 -31v-1068zM227 1338q23 82 46.5 133t54.5 82q61 63 164 63l73 -6q19 -2 41 -8q21 -8 50 -21q49 -16 88 -16q32 0 55 18q20 17 41 64h168q-21 -78 -35 -113q-16 -37 -41 -74q-37 -55 -82 -79q-47 -25 -102 -25l-56 8l-77 21l-78 22l-53 4q-48 0 -93 -73h-164z" />
<glyph unicode="&#xf2;" d="M92 455l2 137l21 152q22 118 92 231t182 168q60 25 113 37t115 12q112 0 209 -41q94 -41 151 -110q55 -62 96 -152q37 -88 54 -205q16 -116 16 -241q0 -121 -16.5 -224.5t-51.5 -191.5q-18 -48 -38 -83q-23 -36 -58 -77q-55 -60 -158 -109q-47 -21 -98 -33 q-53 -12 -104 -12q-111 0 -281 76q-176 84 -209 281q-24 164 -32 254zM253 1747h298l289 -481h-203zM314 424q0 -160 43 -289q43 -131 114 -169q84 -38 148 -38q61 0 119 28q77 31 114 114q37 80 53 184q8 51 12 98.5t4 100.5q0 96 -8 172q-10 74 -22 117q-12 41 -37 92 q-39 86 -104 112q-72 33 -133 33q-66 0 -121 -26q-57 -29 -78 -60q-22 -33 -43 -65l-25 -64l-17 -57q-5 -15 -5 -33v-31l-10 -121z" />
<glyph unicode="&#xf3;" d="M92 455l2 137l21 152q22 118 92 231t182 168q60 25 113 37t115 12q112 0 209 -41q94 -41 151 -110q55 -62 96 -152q37 -88 54 -205q16 -116 16 -241q0 -121 -16.5 -224.5t-51.5 -191.5q-18 -48 -38 -83q-23 -36 -58 -77q-55 -60 -158 -109q-47 -21 -98 -33 q-53 -12 -104 -12q-111 0 -281 76q-176 84 -209 281q-24 164 -32 254zM314 424q0 -160 43 -289q43 -131 114 -169q84 -38 148 -38q61 0 119 28q77 31 114 114q37 80 53 184q8 51 12 98.5t4 100.5q0 96 -8 172q-10 74 -22 117q-12 41 -37 92q-39 86 -104 112q-72 33 -133 33 q-66 0 -121 -26q-57 -29 -78 -60q-22 -33 -43 -65l-25 -64l-17 -57q-5 -15 -5 -33v-31l-10 -121zM398 1266l288 481h297l-389 -481h-196z" />
<glyph unicode="&#xf4;" d="M92 455l2 137l21 152q22 118 92 231t182 168q60 25 113 37t115 12q112 0 209 -41q94 -41 151 -110q55 -62 96 -152q37 -88 54 -205q16 -116 16 -241q0 -121 -16.5 -224.5t-51.5 -191.5q-18 -48 -38 -83q-23 -36 -58 -77q-55 -60 -158 -109q-47 -21 -98 -33 q-53 -12 -104 -12q-111 0 -281 76q-176 84 -209 281q-24 164 -32 254zM222 1266l268 481h254l267 -481h-196l-198 270l-201 -270h-194zM314 424q0 -160 43 -289q43 -131 114 -169q84 -38 148 -38q61 0 119 28q77 31 114 114q37 80 53 184q8 51 12 98.5t4 100.5q0 96 -8 172 q-10 74 -22 117q-12 41 -37 92q-39 86 -104 112q-72 33 -133 33q-66 0 -121 -26q-57 -29 -78 -60q-22 -33 -43 -65l-25 -64l-17 -57q-5 -15 -5 -33v-31l-10 -121z" />
<glyph unicode="&#xf5;" d="M92 455l2 137l21 152q22 118 92 231t182 168q60 25 113 37t115 12q112 0 209 -41q94 -41 151 -110q55 -62 96 -152q37 -88 54 -205q16 -116 16 -241q0 -121 -16.5 -224.5t-51.5 -191.5q-18 -48 -38 -83q-23 -36 -58 -77q-55 -60 -158 -109q-47 -21 -98 -33 q-53 -12 -104 -12q-111 0 -281 76q-176 84 -209 281q-24 164 -32 254zM228 1338q23 82 47 133q22 51 53 82q61 63 164 63l73 -6q19 -2 41 -8q21 -8 50 -21q49 -16 88 -16q32 0 55 18q20 17 41 64h167q-20 -78 -34 -113q-16 -37 -41 -74q-37 -55 -82 -79q-47 -25 -102 -25 l-56 8l-77 21l-78 22l-53 4q-48 0 -93 -73h-163zM314 424q0 -160 43 -289q43 -131 114 -169q84 -38 148 -38q61 0 119 28q77 31 114 114q37 80 53 184q8 51 12 98.5t4 100.5q0 96 -8 172q-10 74 -22 117q-12 41 -37 92q-39 86 -104 112q-72 33 -133 33q-66 0 -121 -26 q-57 -29 -78 -60q-22 -33 -43 -65l-25 -64l-17 -57q-5 -15 -5 -33v-31l-10 -121z" />
<glyph unicode="&#xf6;" d="M92 455l2 137l21 152q22 118 92 231t182 168q60 25 113 37t115 12q112 0 209 -41q94 -41 151 -110q55 -62 96 -152q37 -88 54 -205q16 -116 16 -241q0 -121 -16.5 -224.5t-51.5 -191.5q-18 -48 -38 -83q-23 -36 -58 -77q-55 -60 -158 -109q-47 -21 -98 -33 q-53 -12 -104 -12q-111 0 -281 76q-176 84 -209 281q-24 164 -32 254zM298 1341v289h253v-289h-253zM314 424q0 -160 43 -289q43 -131 114 -169q84 -38 148 -38q61 0 119 28q77 31 114 114q37 80 53 184q9 51 13 98.5t4 100.5q0 96 -8 172q-11 74 -23 117q-12 41 -37 92 q-39 86 -104 112q-72 33 -133 33q-66 0 -121 -26q-57 -29 -78 -60q-22 -33 -43 -65l-25 -64l-17 -57q-5 -15 -5 -33v-31l-10 -121zM686 1341v289h248v-289h-248z" />
<glyph unicode="&#xf7;" d="M70 529v206h1094v-206h-1094zM498 860q0 48 35 84q16 17 39 27q20 8 45 8q53 0 86 -35q16 -16 27 -36q8 -23 8 -46q0 -51 -33 -86q-21 -18 -39 -26q-21 -10 -47 -10q-51 0 -86 34q-17 19 -24 41q-11 21 -11 45zM500 408q0 51 35 86q16 16 39 27q20 8 45 8q53 0 86 -35 q16 -17 27 -37q8 -23 8 -47q0 -53 -35 -86q-37 -35 -84 -35q-51 0 -86 33q-17 18 -24 41q-11 20 -11 45z" />
<glyph unicode="&#xf8;" d="M-66 -287l228 297q-31 78 -47 142q-8 39 -12 74q-4 32 -4 69l-7 174q0 178 25 299t74 191q100 135 205 184q104 47 219 47q114 0 204 -39q74 -33 140 -92l98 131h233l-218 -289q12 -30 24 -67q11 -39 21 -80q18 -84 18 -160l6 -166q0 -340 -98 -473q-99 -135 -203 -189 q-107 -53 -223 -53q-56 0 -150 21q-94 18 -194 116l-107 -137h-232zM314 365l8 -66q0 -45 4 -63l2 -8l493 653q-28 41 -81 72q-54 28 -117 28q-72 0 -137 -37q-68 -36 -119 -135q-53 -98 -53 -354v-90zM408 29q67 -80 137 -95l74 -8q73 0 131 37q63 37 100 101q37 61 50 135 l18 127l4 115q0 133 -19 241z" />
<glyph unicode="&#xf9;" d="M157 240v932l222 26v-905v-33l-2 -32v-68q6 -33 10 -68.5t25 -76.5q14 -36 59 -64q43 -29 109 -29q45 0 82 12q37 13 96 53q60 40 127 120v1065l217 26v-1460l-217 -29v151l-4 -4l-71 -53q-25 -18 -58 -35q-35 -18 -72 -32q-69 -29 -147 -29l-39 2q-66 6 -125 31 q-47 22 -113 84q-53 55 -80 170q-19 103 -19 246zM281 1747h297l289 -481h-201z" />
<glyph unicode="&#xfa;" d="M157 240v932l222 26v-905v-33l-2 -32v-68q6 -33 10 -68.5t25 -76.5q14 -36 59 -64q43 -29 109 -29q45 0 82 12q37 13 96 53q60 40 127 120v1065l217 26v-1460l-217 -29v151l-4 -4l-71 -53q-25 -18 -58 -35q-35 -18 -72 -32q-69 -29 -147 -29l-39 2q-66 6 -125 31 q-47 22 -113 84q-53 55 -80 170q-19 103 -19 246zM424 1266l289 481h299l-389 -481h-199z" />
<glyph unicode="&#xfb;" d="M157 240v932l222 26v-905v-33l-2 -32v-68q6 -33 10 -68.5t25 -76.5q14 -36 59 -64q43 -29 109 -29q45 0 82 12q37 13 96 53q60 40 127 120v1065l217 26v-1460l-217 -29v151l-4 -4l-71 -53q-25 -18 -58 -35q-35 -18 -72 -32q-69 -29 -147 -29l-39 2q-66 6 -125 31 q-47 22 -113 84q-53 55 -80 170q-19 103 -19 246zM248 1266l272 481h250l269 -481h-195l-201 270l-198 -270h-197z" />
<glyph unicode="&#xfc;" d="M157 240v932l222 26v-905v-33l-2 -32v-68q6 -33 10 -68q5 -36 25 -77q15 -36 60 -64q43 -29 108 -29q45 0 82 12q37 13 96.5 53t126.5 120v1065l217 26v-1460l-217 -29v151l-4 -4l-72 -53q-24 -18 -57 -35q-35 -18 -72 -32q-69 -29 -147 -29l-39 2q-66 6 -125 31 q-47 22 -113 84q-53 55 -80 170q-19 103 -19 246zM326 1341v289h254v-289h-254zM713 1341v289h250v-289h-250z" />
<glyph unicode="&#xfd;" d="M94 1172l209 22l344 -1036l332 1036l203 -20l-406 -1275q-45 -147 -100 -229q-57 -84 -121 -104q-116 -39 -178 -39q-59 0 -106 16q-50 16 -117 64l115 153q77 -18 106 -18q104 0 160 121zM398 1266l288 481h298l-390 -481h-196z" />
<glyph unicode="&#xfe;" d="M133 -463v1985l222 18v-434q72 43 143 66q72 20 145 20l60 -2q80 0 137 -22q55 -25 94 -66q19 -20 37 -39q29 -31 35 -41l45 -69q35 -74 65 -181q27 -112 27 -268q0 -158 -25 -254q-24 -98 -53 -153q-20 -39 -35 -64q-22 -35 -53 -76q-61 -80 -168 -111 q-108 -33 -180 -33q-23 0 -49 2q-27 0 -66 15q-43 12 -83 35l-66 43l-10 4v-346zM355 125l98 -55l74 -33q38 -8 53 -8q12 -2 31 -2l38 2q23 0 101 22q78 23 125 152t47 301l-6 102l-17 111q-22 98 -71 172q-52 72 -146 84l-47 4q-63 0 -139 -29q-31 -12 -49 -22 q-43 -23 -92 -53v-748z" />
<glyph unicode="&#xff;" d="M94 1172l209 22l344 -1036l332 1036l203 -20l-406 -1275q-45 -147 -100 -229q-57 -84 -121 -104q-116 -39 -178 -39q-59 0 -106 16q-50 16 -117 64l115 153q77 -18 106 -18q104 0 160 121zM297 1341v289h254v-289h-254zM686 1341v289h248v-289h-248z" />
<glyph unicode="&#x152;" d="M66 629q0 117 6 219q6 100 20 201q31 194 138 340q104 145 313 145q47 0 115 -10h559l22 -211h-389v-522h281l-23 -209h-258v-644h422l-22 -209h-590l-107 -10q-160 0 -260 86q-102 84 -149 213.5t-60 245.5l-14 189zM295 522v107v90l2 102l8 154q9 68 38.5 158t88.5 141 q60 49 154 49l39 -4v-1387l-45 -4q-123 0 -182 85q-70 94 -86 217q-17 120 -17 292z" />
<glyph unicode="&#x153;" d="M-15 453l6 211l6 86l28 129q22 102 84 184q31 45 62.5 71.5t70.5 39.5q63 20 104 20q35 0 62 -2q24 -4 49 -24q20 -11 30.5 -19t30.5 -28q19 -15 27 -23q8 -10 29 -39q4 -6 16 -25q10 -18 16 -28q117 188 271 188q20 0 51 -6q29 -6 90 -22q59 -19 102.5 -76.5 t71.5 -163.5q23 -92 35 -215t12 -289h-542v-8l2 -45l2 -64l2 -71q0 -25 6 -51q4 -27 10 -52q4 -30 15.5 -61t29.5 -66q31 -47 80 -70l45 -8q92 0 178 248l170 -94q-26 -93 -59 -158q-33 -68 -72 -113q-80 -96 -225 -96q-105 0 -170 49q-25 19 -43 41q-21 21 -41 47l-25 39 q-34 -57 -82 -104q-71 -72 -172 -72q-43 0 -108 23q-70 18 -129 102q-60 82 -82 166l-27 133l-11 103zM209 406q0 -189 23 -299q20 -113 69 -156q19 -23 45 -23q21 0 56 31q32 28 45 92l20 115l6 96l8 220q0 192 -22 313q-16 115 -55 151q-35 29 -60 31q-20 0 -49 -24.5 t-53 -106.5q-23 -86 -23 -203l-6 -139zM701 635h313q0 57 -16 135q-13 95 -52 154q-30 53 -86 53q-61 0 -94 -53q-16 -33 -28.5 -62.5t-16.5 -56.5l-16 -119z" />
<glyph unicode="&#x178;" d="M35 1520l217 20l365 -778l368 778l215 -20l-473 -1012v-777l-221 -22v791zM297 1696v289h254v-289h-254zM686 1696v289h248v-289h-248z" />
<glyph unicode="&#x2c6;" d="M221 1266l269 481h254l268 -481h-196l-199 270l-201 -270h-195z" />
<glyph unicode="&#x2dc;" d="M228 1338q23 82 47 133q22 51 53 82q61 63 164 63l73 -6q19 -2 41 -8q21 -8 50 -21q49 -16 88 -16q32 0 55 18q20 17 41 64h168q-20 -78 -34 -113q-17 -37 -42 -74q-37 -55 -82 -79q-47 -25 -102 -25l-56 8l-77 21l-78 22l-53 4q-48 0 -93 -73h-163z" />
<glyph unicode="&#x2000;" horiz-adv-x="1098" />
<glyph unicode="&#x2001;" horiz-adv-x="2196" />
<glyph unicode="&#x2002;" horiz-adv-x="1098" />
<glyph unicode="&#x2003;" horiz-adv-x="2196" />
<glyph unicode="&#x2004;" horiz-adv-x="732" />
<glyph unicode="&#x2005;" horiz-adv-x="549" />
<glyph unicode="&#x2006;" horiz-adv-x="366" />
<glyph unicode="&#x2007;" horiz-adv-x="366" />
<glyph unicode="&#x2008;" horiz-adv-x="274" />
<glyph unicode="&#x2009;" horiz-adv-x="439" />
<glyph unicode="&#x200a;" horiz-adv-x="122" />
<glyph unicode="&#x2010;" d="M189 365v203h854v-203h-854z" />
<glyph unicode="&#x2011;" d="M189 365v203h854v-203h-854z" />
<glyph unicode="&#x2012;" d="M189 365v203h854v-203h-854z" />
<glyph unicode="&#x2013;" d="M-30 381v170h1294v-170h-1294z" />
<glyph unicode="&#x2014;" d="M-30 381v170h1294v-170h-1294z" />
<glyph unicode="&#x2018;" d="M356 797l267 749l278 -90l-268 -749z" />
<glyph unicode="&#x2019;" d="M356 797l267 749l278 -90l-268 -749z" />
<glyph unicode="&#x201a;" horiz-adv-x="801" d="M74 -457l264 756l273 -94l-263 -748z" />
<glyph unicode="&#x201c;" d="M137 797l265 749l277 -90l-267 -749zM602 797l265 749l268 -90l-262 -749z" />
<glyph unicode="&#x201d;" d="M137 797l265 749l277 -90l-267 -749zM602 797l265 749l268 -90l-262 -749z" />
<glyph unicode="&#x201e;" d="M73 -457l265 756l273 -94l-263 -748zM532 -457l269 756l276 -94l-268 -748z" />
<glyph unicode="&#x2022;" d="M422 647q0 82 57 144q60 53 138 53q84 0 139 -53q59 -49 59 -144q0 -53 -28 -104q-27 -37 -72 -66q-41 -22 -96 -22q-51 0 -94 24q-46 23 -76 64q-27 49 -27 104z" />
<glyph unicode="&#x2026;" d="M73 31h265v-301h-265v301zM486 31h266v-301h-266v301zM893 31h266v-301h-266v301z" />
<glyph unicode="&#x202f;" horiz-adv-x="439" />
<glyph unicode="&#x2039;" d="M412 453l223 471h205l-196 -471l196 -472h-204z" />
<glyph unicode="&#x203a;" d="M424 -19l195 472l-195 471h201l225 -471l-225 -472h-201z" />
<glyph unicode="&#x205f;" horiz-adv-x="549" />
<glyph unicode="&#x2122;" d="M84 1086l2 16v23l2 18v18l2 15v10v25q11 79 84 79h338q88 0 88 -114v-33v-18l-2 -15l2 -24l2 -35q0 -45 -16 -68q-18 -22 -64 -28q-57 0 -77 41q-13 36 -13 92l2 16v14l-8 5v-287h-8q41 0 68 -10q24 -11 34 -29q11 -21 15 -47q0 -33 -19 -58q-20 -24 -61 -30h-223 q-37 0 -56 24l-18 29l-8 33q0 30 20 59q25 29 96 29h-8v287l-8 -62q0 -49 -24 -76q-25 -26 -58 -32q-45 0 -71 43q-13 36 -13 90zM572 746l6 35q6 24 43 40l12 314l-27 22q-18 29 -18 54q0 41 37 65q14 8 34.5 13.5t43.5 5.5q45 0 80 -15q34 -22 47 -57l30 -115l29 113 q10 37 51 57q15 8 23 10q22 9 53 9q55 0 84 -21.5t35 -62.5q0 -54 -47 -78l10 -311q37 -19 51 -58l4 -24q0 -82 -108 -82l-23 2h-24l-23 -2q-113 0 -113 84l7 39q16 34 69 47v254l62 -7l-6 -26l-11 -43l-26 -98q-13 -39 -31 -64q-18 -27 -66 -33q-43 0 -71 31q-15 21 -35 74 l-19 80l-18 79l61 7v-254l29 -6q31 -11 45 -58l4 -24q0 -82 -118 -82l-23 2h-23q-120 0 -120 84z" />
<glyph unicode="&#x25fc;" horiz-adv-x="1190" d="M0 0v1190h1190v-1190h-1190z" />
</font>
</defs>
</svg>
